<?xml version="1.0" encoding="utf-8"?>
<!-- Generator: Adobe Illustrator 15.1.0, SVG Export Plug-In . SVG Version: 6.00 Build 0)  -->
<!DOCTYPE svg PUBLIC "-//W3C//DTD SVG 1.1//EN" "http://www.w3.org/Graphics/SVG/1.1/DTD/svg11.dtd">
<svg version="1.1" id="Layer_1" xmlns="http://www.w3.org/2000/svg" xmlns:xlink="http://www.w3.org/1999/xlink" x="0px" y="0px"
	 width="500px" height="100px" viewBox="0 0 500 100" enable-background="new 0 0 500 100" xml:space="preserve">
<g>
	<g>
		<g>
			<g opacity="0.5">
				<path fill="#1D1D1B" d="M102.691,6.534c-9.523,0-17.246,4.581-17.246,10.234V32.1L30.48,35.815
					C14.14,36.919,2.297,45.757,4.162,55.454l5.303,27.598c1.86,9.699,16.752,16.726,33.091,15.619l430.93-29.153
					c16.34-1.104,28.181-9.94,26.321-19.636L500,22.281c-1.776-9.242-15.402-16.047-30.827-15.703V6.534H102.691z"/>
			</g>
			<g>
				<linearGradient id="SVGID_1_" gradientUnits="userSpaceOnUse" x1="248.0161" y1="94.8174" x2="248.0161" y2="2.5669">
					<stop  offset="0" style="stop-color:#595959"/>
					<stop  offset="0.3135" style="stop-color:#656565"/>
					<stop  offset="0.8763" style="stop-color:#848484"/>
					<stop  offset="1" style="stop-color:#8C8C8C"/>
				</linearGradient>
				<path fill="url(#SVGID_1_)" d="M98.723,2.566c-9.523,0-17.246,4.58-17.246,10.234v15.33l-54.964,3.717
					c-16.341,1.104-28.184,9.94-26.319,19.639l5.303,27.598c1.86,9.698,16.752,16.726,33.091,15.619l430.93-29.153
					c16.34-1.104,28.181-9.941,26.32-19.637l0.194-27.6C494.255,9.07,480.63,2.266,465.204,2.609V2.566H98.723z"/>
			</g>
		</g>
		<g>
			<g opacity="0.5">
				<polygon fill="#1D1D1B" points="55.544,61.692 56.182,64.979 31.162,66.698 30.521,63.413 				"/>
				<polygon fill="#1D1D1B" points="88.767,59.41 89.409,62.696 64.386,64.415 63.746,61.13 				"/>
				<polygon fill="#1D1D1B" points="121.994,57.127 122.631,60.412 97.61,62.133 96.972,58.847 				"/>
				<polygon fill="#1D1D1B" points="155.216,54.843 155.859,58.13 130.837,59.849 130.195,56.562 				"/>
				<polygon fill="#1D1D1B" points="188.444,52.56 189.082,55.846 164.062,57.565 163.42,54.279 				"/>
				<polygon fill="#1D1D1B" points="221.665,50.276 222.309,53.562 197.286,55.281 196.646,51.995 				"/>
				<polygon fill="#1D1D1B" points="254.894,47.993 255.53,51.279 230.51,52.999 229.873,49.712 				"/>
				<polygon fill="#1D1D1B" points="288.115,45.709 288.759,48.995 263.736,50.714 263.095,47.429 				"/>
				<polygon fill="#1D1D1B" points="321.344,43.426 321.979,46.712 296.961,48.432 296.323,45.145 				"/>
				<polygon fill="#1D1D1B" points="354.568,41.143 355.206,44.429 330.186,46.148 329.546,42.861 				"/>
				<polygon fill="#1D1D1B" points="387.793,38.858 388.43,42.146 363.409,43.864 362.771,40.578 				"/>
			</g>
			<g>
				<g>
					<polygon fill="#FFFFFF" points="54.544,60.692 55.182,63.979 30.162,65.698 29.521,62.413 					"/>
					<polygon fill="#FFFFFF" points="87.767,58.41 88.409,61.696 63.386,63.415 62.746,60.13 					"/>
					<polygon fill="#FFFFFF" points="120.994,56.127 121.631,59.412 96.61,61.133 95.972,57.847 					"/>
					<polygon fill="#FFFFFF" points="154.216,53.843 154.859,57.13 129.837,58.849 129.195,55.562 					"/>
					<polygon fill="#FFFFFF" points="187.444,51.56 188.082,54.846 163.062,56.565 162.42,53.279 					"/>
					<polygon fill="#FFFFFF" points="220.665,49.276 221.309,52.562 196.286,54.281 195.646,50.995 					"/>
					<polygon fill="#FFFFFF" points="253.894,46.993 254.53,50.279 229.51,51.999 228.873,48.712 					"/>
					<polygon fill="#FFFFFF" points="287.115,44.709 287.759,47.995 262.736,49.714 262.095,46.429 					"/>
					<polygon fill="#FFFFFF" points="320.344,42.426 320.979,45.712 295.961,47.432 295.323,44.145 					"/>
					<polygon fill="#FFFFFF" points="353.568,40.143 354.206,43.429 329.186,45.148 328.546,41.861 					"/>
					<polygon fill="#FFFFFF" points="386.793,37.858 387.43,41.146 362.409,42.864 361.771,39.578 					"/>
				</g>
			</g>
		</g>
		<g>
			<g opacity="0.5">
				<path fill="#1D1D1B" d="M243.647,6.75l-5.805,0.161c-8.021,0.221-14.302,8.326-14.032,18.11
					c0.271,9.782,6.99,17.53,15.011,17.31l5.803-0.16c2.477-1.878,25.3-3.193,28.46-2.325c3.042,0.834,7.118,0.483,9.486-0.845
					c2.089-1.163,3.341-2.665,3.298-4.266l-0.029-1.011l18.354-0.507c6.611-0.183,11.949-2.846,11.866-5.924l-0.268-9.632
					c-0.085-3.077-5.562-5.442-12.172-5.261l-18.354,0.508l-0.029-1.011c-0.044-1.604-1.378-3.031-3.528-4.082
					c-2.436-1.188-6.525-1.318-9.52-0.314C269.085,8.541,246.221,8.489,243.647,6.75z"/>
			</g>
			<g>
				<path fill="#6F6F73" d="M241.647,4.75l-5.805,0.161c-8.021,0.221-14.302,8.326-14.032,18.11
					c0.271,9.782,6.99,17.53,15.011,17.31l5.803-0.16c2.477-1.878,25.3-3.193,28.46-2.325c3.042,0.834,7.118,0.483,9.486-0.845
					c2.089-1.163,3.341-2.665,3.298-4.266l-0.029-1.011l18.354-0.507c6.611-0.183,11.949-2.846,11.866-5.924l-0.268-9.632
					c-0.085-3.077-5.562-5.442-12.172-5.261l-18.354,0.508l-0.029-1.011c-0.044-1.604-1.378-3.031-3.528-4.082
					c-2.436-1.188-6.525-1.318-9.52-0.314C267.085,6.541,244.221,6.489,241.647,4.75z"/>
			</g>
		</g>
		<g>
			<g>
				<g opacity="0.5">
					<path fill="#1D1D1B" d="M411.191,33.807c-0.071-0.046-0.147-0.086-0.225-0.128c0.851-0.148,1.64-0.42,1.64-0.921
						c0-0.543-0.921-0.817-1.849-0.956c0.152-0.073,0.3-0.149,0.434-0.235c1.577-1.013,1.455-4.454,1.37-6.732
						c-0.014-0.448-0.029-0.851-0.029-1.184c0-1.926-1.067-2.789-2.131-2.789c-1.07,0-2.221,0.912-2.246,2.607
						c-0.051,3.312-1.372,6.286-2.176,7.799l-10.612-1.163v-0.02h-0.179c-0.864-6.317-3.34-20.911-7.762-20.911
						c-2.61,0-4.731,3.755-4.731,8.373v3.856h-1.161c-0.317,0-0.585,0.162-0.766,0.398c0.008-0.118,0.01-0.215,0.01-0.248
						c0-0.747-0.16-1.616-0.616-1.616c-0.599,0-0.616,1.449-0.616,1.616c0,0.094,0.01,0.604,0.124,1.026h-0.124v0.758h0.126
						c-0.116,0.424-0.126,0.938-0.126,1.032c0,0.166,0.018,1.616,0.616,1.616c0.456,0,0.616-0.869,0.616-1.616
						c0-0.08-0.004-0.163-0.008-0.246c0.179,0.234,0.448,0.396,0.764,0.396h1.161v5.565h-4.261c-3.61,0-6.436,1.174-6.436,2.673
						c0,1.498,2.825,2.673,6.436,2.673h4.261v5.564h-1.667c-0.315,0-0.585,0.161-0.761,0.396c0.003-0.117,0.007-0.212,0.007-0.246
						c0-0.166-0.017-1.615-0.615-1.615c-0.456,0-0.616,0.869-0.616,1.615c0,0.095,0.009,0.604,0.124,1.028h-0.124v0.762h0.122
						c-0.086,0.303-0.122,0.678-0.122,1.027c0,0.748,0.16,1.616,0.616,1.616c0.599,0,0.615-1.45,0.615-1.616
						c0-0.033-0.004-0.129-0.007-0.245c0.176,0.234,0.445,0.396,0.761,0.396h1.667v4.215c0,4.619,2.121,8.375,4.731,8.375
						c4.568,0,7.014-15.128,7.816-21.271h0.124v-0.021l10.682-1.17c0.811,1.55,2.058,4.446,2.106,7.666
						c0.025,1.692,1.176,2.607,2.246,2.607c0.575,0,1.104-0.251,1.483-0.703c0.425-0.498,0.647-1.224,0.647-2.093
						c0-0.329,0.016-0.732,0.029-1.18C412.646,38.262,412.769,34.82,411.191,33.807z"/>
				</g>
				<g>
					<path fill="#BFBFBF" d="M409.191,31.807c-0.071-0.046-0.147-0.086-0.225-0.128c0.851-0.148,1.64-0.42,1.64-0.921
						c0-0.543-0.921-0.817-1.849-0.956c0.152-0.073,0.3-0.149,0.434-0.235c1.577-1.013,1.455-4.454,1.37-6.732
						c-0.014-0.448-0.029-0.851-0.029-1.184c0-1.926-1.067-2.789-2.131-2.789c-1.07,0-2.221,0.912-2.246,2.607
						c-0.051,3.312-1.372,6.286-2.176,7.799l-10.612-1.163v-0.02h-0.179c-0.864-6.317-3.34-20.911-7.762-20.911
						c-2.61,0-4.731,3.755-4.731,8.373v3.856h-1.161c-0.317,0-0.585,0.162-0.766,0.398c0.008-0.118,0.01-0.215,0.01-0.248
						c0-0.747-0.16-1.616-0.616-1.616c-0.599,0-0.616,1.449-0.616,1.616c0,0.094,0.01,0.604,0.124,1.026h-0.124v0.758h0.126
						c-0.116,0.424-0.126,0.938-0.126,1.032c0,0.166,0.018,1.616,0.616,1.616c0.456,0,0.616-0.869,0.616-1.616
						c0-0.08-0.004-0.163-0.008-0.246c0.179,0.234,0.448,0.396,0.764,0.396h1.161v5.565h-4.261c-3.61,0-6.436,1.174-6.436,2.673
						c0,1.498,2.825,2.673,6.436,2.673h4.261v5.564h-1.667c-0.315,0-0.585,0.161-0.761,0.396c0.003-0.117,0.007-0.212,0.007-0.246
						c0-0.166-0.017-1.615-0.615-1.615c-0.456,0-0.616,0.869-0.616,1.615c0,0.095,0.009,0.604,0.124,1.028h-0.124v0.762h0.122
						c-0.086,0.303-0.122,0.678-0.122,1.027c0,0.748,0.16,1.616,0.616,1.616c0.599,0,0.615-1.45,0.615-1.616
						c0-0.033-0.004-0.129-0.007-0.245c0.176,0.234,0.445,0.396,0.761,0.396h1.667v4.215c0,4.619,2.121,8.375,4.731,8.375
						c4.568,0,7.014-15.128,7.816-21.271h0.124v-0.021l10.682-1.17c0.811,1.55,2.058,4.446,2.106,7.666
						c0.025,1.692,1.176,2.607,2.246,2.607c0.575,0,1.104-0.251,1.483-0.703c0.425-0.498,0.647-1.224,0.647-2.093
						c0-0.329,0.016-0.732,0.029-1.18C410.646,36.262,410.769,32.82,409.191,31.807z"/>
				</g>
			</g>
			<g>
				<g opacity="0.5">
					<path fill="#1D1D1B" d="M236.652,70.165c-0.042-0.326-0.087-0.725-0.13-1.165c-0.238-2.271-0.593-5.697-2.3-6.481
						c-0.075-0.035-0.168-0.06-0.248-0.09c0.82-0.265,1.567-0.643,1.506-1.139c-0.07-0.557-1.083-0.688-1.967-0.697
						c0.14-0.095,0.273-0.19,0.396-0.295c1.424-1.223,0.821-4.609,0.424-6.853c-0.079-0.441-0.148-0.84-0.195-1.169
						c-0.256-1.837-1.362-2.488-2.229-2.488c-0.579,0-1.14,0.262-1.542,0.72c-0.488,0.554-0.698,1.332-0.591,2.195
						c0.414,3.287-0.482,6.418-1.068,8.026l-10.668,0.326l-0.004-0.021l-0.179,0.025c-1.732-6.141-6.212-20.273-10.597-19.626
						c-2.583,0.362-4.162,4.379-3.521,8.948l0.537,3.82l-1.149,0.161c-0.256,0.035-0.484,0.172-0.644,0.378
						c-0.029,0.038-0.036,0.084-0.06,0.123c-0.008-0.083-0.012-0.168-0.023-0.247c-0.037-0.254-0.24-1.519-0.829-1.519
						c-0.002,0-0.002,0-0.002,0c-0.066,0.012-0.165,0.045-0.246,0.153c-0.223,0.294-0.221,0.986-0.142,1.536
						c0.021,0.146,0.101,0.618,0.264,0.999l-0.124,0.018l0.112,0.752l0.124-0.018c-0.043,0.319-0.031,0.7,0.018,1.036
						c0.034,0.254,0.242,1.524,0.786,1.524l0.047-0.006c0.451-0.065,0.49-0.95,0.384-1.688c-0.006-0.047-0.021-0.132-0.039-0.229
						c0.177,0.171,0.413,0.282,0.675,0.282c0.042,0,0.087-0.003,0.133-0.012l1.149-0.161l0.775,5.512l-4.219,0.593
						c-2.6,0.363-4.82,1.316-5.657,2.428c-0.281,0.374-0.397,0.748-0.344,1.115c0.161,1.155,1.98,1.904,4.635,1.904
						c0.685,0,1.396-0.052,2.112-0.152l4.217-0.593l0.772,5.511l-1.648,0.232c-0.256,0.035-0.484,0.171-0.644,0.379
						c-0.027,0.036-0.035,0.081-0.057,0.119c-0.011-0.117-0.022-0.212-0.028-0.245c-0.035-0.253-0.24-1.518-0.833-1.518
						c-0.002,0-0.002,0-0.002,0c-0.592,0.087-0.407,1.526-0.382,1.689c0.012,0.091,0.089,0.595,0.262,1l-0.12,0.016l0.103,0.753
						l0.132-0.019c-0.045,0.318-0.031,0.701,0.017,1.038c0.018,0.155,0.224,1.52,0.787,1.52l0.043-0.003
						c0.065-0.01,0.16-0.043,0.246-0.152c0.221-0.291,0.219-0.982,0.141-1.537c-0.005-0.045-0.019-0.128-0.038-0.225
						c0.178,0.17,0.412,0.279,0.674,0.279c0.043,0,0.088-0.002,0.134-0.01l1.649-0.232l0.587,4.178
						c0.614,4.365,2.963,7.657,5.466,7.657c0.128,0,0.256-0.009,0.386-0.027c4.522-0.636,4.838-15.952,4.778-22.149l0.126-0.016
						l-0.004-0.022l10.416-2.645c1.016,1.421,2.655,4.115,3.153,7.297c0.242,1.569,1.367,2.286,2.31,2.286
						c0.567,0,1.085-0.234,1.459-0.662C236.459,72.188,236.833,71.446,236.652,70.165z"/>
				</g>
				<g>
					<path fill="#BFBFBF" d="M234.652,68.165c-0.042-0.326-0.087-0.725-0.13-1.165c-0.238-2.271-0.593-5.697-2.3-6.481
						c-0.075-0.035-0.168-0.06-0.248-0.09c0.82-0.265,1.567-0.643,1.506-1.139c-0.07-0.557-1.083-0.688-1.967-0.697
						c0.14-0.095,0.273-0.19,0.396-0.295c1.424-1.223,0.821-4.609,0.424-6.853c-0.079-0.441-0.148-0.84-0.195-1.169
						c-0.256-1.837-1.362-2.488-2.229-2.488c-0.579,0-1.14,0.262-1.542,0.72c-0.488,0.554-0.698,1.332-0.591,2.195
						c0.414,3.287-0.482,6.418-1.068,8.026l-10.668,0.326l-0.004-0.021l-0.179,0.025c-1.732-6.141-6.212-20.273-10.597-19.626
						c-2.583,0.362-4.162,4.379-3.521,8.948l0.537,3.82l-1.149,0.161c-0.256,0.035-0.484,0.172-0.644,0.378
						c-0.029,0.038-0.036,0.084-0.06,0.123c-0.008-0.083-0.012-0.168-0.023-0.247c-0.037-0.254-0.24-1.519-0.829-1.519
						c-0.002,0-0.002,0-0.002,0c-0.066,0.012-0.165,0.045-0.246,0.153c-0.223,0.294-0.221,0.986-0.142,1.536
						c0.021,0.146,0.101,0.618,0.264,0.999l-0.124,0.018l0.112,0.752l0.124-0.018c-0.043,0.319-0.031,0.7,0.018,1.036
						c0.034,0.254,0.242,1.524,0.786,1.524l0.047-0.006c0.451-0.065,0.49-0.95,0.384-1.688c-0.006-0.047-0.021-0.132-0.039-0.229
						c0.177,0.171,0.413,0.282,0.675,0.282c0.042,0,0.087-0.003,0.133-0.012l1.149-0.161l0.775,5.512l-4.219,0.593
						c-2.6,0.363-4.82,1.316-5.657,2.428c-0.281,0.374-0.397,0.748-0.344,1.115c0.161,1.155,1.98,1.904,4.635,1.904
						c0.685,0,1.396-0.052,2.112-0.152l4.217-0.593l0.772,5.511l-1.648,0.232c-0.256,0.035-0.484,0.171-0.644,0.379
						c-0.027,0.036-0.035,0.081-0.057,0.119c-0.011-0.117-0.022-0.212-0.028-0.245c-0.035-0.253-0.24-1.518-0.833-1.518
						c-0.002,0-0.002,0-0.002,0c-0.592,0.087-0.407,1.526-0.382,1.689c0.012,0.091,0.089,0.595,0.262,1l-0.12,0.016l0.103,0.753
						l0.132-0.019c-0.045,0.318-0.031,0.701,0.017,1.038c0.018,0.155,0.224,1.52,0.787,1.52l0.043-0.003
						c0.065-0.01,0.16-0.043,0.246-0.152c0.221-0.291,0.219-0.982,0.141-1.537c-0.005-0.045-0.019-0.128-0.038-0.225
						c0.178,0.17,0.412,0.279,0.674,0.279c0.043,0,0.088-0.002,0.134-0.01l1.649-0.232l0.587,4.178
						c0.614,4.365,2.963,7.657,5.466,7.657c0.128,0,0.256-0.009,0.386-0.027c4.522-0.636,4.838-15.952,4.778-22.149l0.126-0.016
						l-0.004-0.022l10.416-2.645c1.016,1.421,2.655,4.115,3.153,7.297c0.242,1.569,1.367,2.286,2.31,2.286
						c0.567,0,1.085-0.234,1.459-0.662C234.459,70.188,234.833,69.446,234.652,68.165z"/>
				</g>
			</g>
			<g>
				<g opacity="0.5">
					<path fill="#1D1D1B" d="M151.62,19.169c-0.193-0.266-0.421-0.6-0.668-0.968c-1.248-1.845-3.134-4.63-4.971-4.63
						c-0.034,0-0.073,0-0.112,0.003c-0.083,0.005-0.168,0.02-0.254,0.03c0.545-0.567,0.998-1.196,0.835-1.61
						c-0.044-0.117-0.178-0.312-0.554-0.312c-0.362,0-0.903,0.188-1.562,0.531c0.081-0.15,0.154-0.301,0.213-0.451
						c0.68-1.752-1.453-4.458-2.862-6.251c-0.274-0.349-0.521-0.666-0.719-0.932c-0.643-0.881-1.438-1.365-2.235-1.365
						c-0.729,0-1.394,0.413-1.738,1.081c-0.421,0.814-0.299,1.831,0.327,2.72c1.915,2.704,2.603,5.885,2.843,7.579l-9.254,5.319
						l-0.012-0.018l-0.146,0.105c-3.941-4.091-12.79-12.735-17.163-12.735c-0.566,0-1.049,0.144-1.438,0.428
						c-1.04,0.76-1.485,2.185-1.255,4.011c0.225,1.784,1.065,3.752,2.373,5.543l2.273,3.113l-0.935,0.685
						c-0.26,0.188-0.382,0.479-0.386,0.774c-0.046-0.069-0.091-0.144-0.139-0.207c-0.405-0.559-1.091-1.205-1.451-0.946
						c-0.483,0.352,0.36,1.537,0.457,1.674c0.193,0.265,0.451,0.553,0.705,0.755l-0.101,0.072l0.447,0.613l0.103-0.074
						c0.157,0.411,0.452,0.828,0.508,0.903c0.354,0.49,0.866,1.01,1.242,1.01c0.077,0,0.147-0.021,0.209-0.064
						c0.482-0.356-0.36-1.54-0.459-1.673c-0.043-0.058-0.089-0.116-0.134-0.173c0.083,0.023,0.171,0.039,0.26,0.039
						c0.205,0,0.405-0.065,0.575-0.188l0.937-0.685l3.28,4.494l-3.441,2.512c-2.12,1.548-3.627,3.437-3.843,4.812
						c-0.069,0.46,0.004,0.844,0.224,1.144c0.282,0.385,0.788,0.59,1.465,0.593c1.395,0,3.429-0.855,5.312-2.232l3.438-2.51
						l3.28,4.496l-1.345,0.981c-0.258,0.186-0.378,0.477-0.384,0.771c-0.046-0.069-0.091-0.143-0.14-0.207
						c-0.337-0.463-0.868-1.008-1.238-1.008c-0.083,0-0.152,0.024-0.211,0.068c-0.484,0.349,0.356,1.534,0.455,1.67
						c0.204,0.276,0.456,0.561,0.706,0.758l-0.098,0.07l0.446,0.613l0.103-0.074c0.157,0.411,0.449,0.83,0.506,0.907
						c0.337,0.465,0.87,1.009,1.24,1.009c0.081,0,0.152-0.024,0.211-0.067c0.48-0.357-0.358-1.537-0.457-1.671
						c-0.043-0.058-0.088-0.117-0.134-0.174c0.083,0.022,0.17,0.037,0.26,0.037c0.207,0,0.406-0.065,0.571-0.188l1.345-0.982
						l2.488,3.408c2.009,2.751,4.724,4.53,6.915,4.53c0.713,0,1.333-0.189,1.845-0.563c3.691-2.694-3.256-16.349-6.231-21.784
						l0.101-0.072l-0.014-0.019l7.938-7.244c1.565,0.774,4.284,2.378,6.22,4.946c0.569,0.758,1.323,1.172,2.126,1.172
						c0.778,0,1.469-0.408,1.804-1.068C152.533,21.201,152.349,20.166,151.62,19.169z"/>
				</g>
				<g>
					<path fill="#BFBFBF" d="M149.62,17.169c-0.193-0.266-0.421-0.6-0.668-0.968c-1.248-1.845-3.134-4.63-4.971-4.63
						c-0.034,0-0.073,0-0.112,0.003c-0.083,0.005-0.168,0.02-0.254,0.03c0.545-0.567,0.998-1.196,0.835-1.61
						c-0.044-0.117-0.178-0.312-0.554-0.312c-0.362,0-0.903,0.188-1.562,0.531c0.081-0.15,0.154-0.301,0.213-0.451
						c0.68-1.752-1.453-4.458-2.862-6.251c-0.274-0.349-0.521-0.666-0.719-0.932c-0.643-0.881-1.438-1.365-2.235-1.365
						c-0.729,0-1.394,0.413-1.738,1.081c-0.421,0.814-0.299,1.831,0.327,2.72c1.915,2.704,2.603,5.885,2.843,7.579l-9.254,5.319
						l-0.012-0.018l-0.146,0.105c-3.941-4.091-12.79-12.735-17.163-12.735c-0.566,0-1.049,0.144-1.438,0.428
						c-1.04,0.76-1.485,2.185-1.255,4.011c0.225,1.784,1.065,3.752,2.373,5.543l2.273,3.113l-0.935,0.685
						c-0.26,0.188-0.382,0.479-0.386,0.774c-0.046-0.069-0.091-0.144-0.139-0.207c-0.405-0.559-1.091-1.205-1.451-0.946
						c-0.483,0.352,0.36,1.537,0.457,1.674c0.193,0.265,0.451,0.553,0.705,0.755l-0.101,0.072l0.447,0.613l0.103-0.074
						c0.157,0.411,0.452,0.828,0.508,0.903c0.354,0.49,0.866,1.01,1.242,1.01c0.077,0,0.147-0.021,0.209-0.064
						c0.482-0.356-0.36-1.54-0.459-1.673c-0.043-0.058-0.089-0.116-0.134-0.173c0.083,0.023,0.171,0.039,0.26,0.039
						c0.205,0,0.405-0.065,0.575-0.188l0.937-0.685l3.28,4.494l-3.441,2.512c-2.12,1.548-3.627,3.437-3.843,4.812
						c-0.069,0.46,0.004,0.844,0.224,1.144c0.282,0.385,0.788,0.59,1.465,0.593c1.395,0,3.429-0.855,5.312-2.232l3.438-2.51
						l3.28,4.496l-1.345,0.981c-0.258,0.186-0.378,0.477-0.384,0.771c-0.046-0.069-0.091-0.143-0.14-0.207
						c-0.337-0.463-0.868-1.008-1.238-1.008c-0.083,0-0.152,0.024-0.211,0.068c-0.484,0.349,0.356,1.534,0.455,1.67
						c0.204,0.276,0.456,0.561,0.706,0.758l-0.098,0.07l0.446,0.613l0.103-0.074c0.157,0.411,0.449,0.83,0.506,0.907
						c0.337,0.465,0.87,1.009,1.24,1.009c0.081,0,0.152-0.024,0.211-0.067c0.48-0.357-0.358-1.537-0.457-1.671
						c-0.043-0.058-0.088-0.117-0.134-0.174c0.083,0.022,0.17,0.037,0.26,0.037c0.207,0,0.406-0.065,0.571-0.188l1.345-0.982
						l2.488,3.408c2.009,2.751,4.724,4.53,6.915,4.53c0.713,0,1.333-0.189,1.845-0.563c3.691-2.694-3.256-16.349-6.231-21.784
						l0.101-0.072l-0.014-0.019l7.938-7.244c1.565,0.774,4.284,2.378,6.22,4.946c0.569,0.758,1.323,1.172,2.126,1.172
						c0.778,0,1.469-0.408,1.804-1.068C150.533,19.201,150.349,18.166,149.62,17.169z"/>
				</g>
			</g>
			<g>
				<g opacity="0.5">
					<path fill="#1D1D1B" d="M199.371,24.256c-0.194-0.265-0.421-0.6-0.669-0.967c-1.248-1.846-3.133-4.631-4.97-4.631
						c-0.035,0-0.073,0-0.11,0.004c-0.085,0.005-0.173,0.019-0.258,0.03c0.545-0.566,0.998-1.196,0.837-1.614
						c-0.046-0.114-0.176-0.307-0.554-0.307c-0.364,0-0.905,0.188-1.566,0.531c0.082-0.151,0.157-0.302,0.216-0.453
						c0.678-1.75-1.449-4.458-2.86-6.248c-0.277-0.352-0.523-0.668-0.721-0.935c-0.644-0.881-1.438-1.365-2.236-1.365
						c-0.729,0-1.393,0.414-1.735,1.081c-0.423,0.815-0.301,1.831,0.329,2.72c1.912,2.704,2.599,5.887,2.839,7.581l-9.255,5.317
						l-0.013-0.018l-0.144,0.105c-3.941-4.091-12.788-12.735-17.166-12.735c-0.563,0-1.046,0.145-1.436,0.428
						c-2.103,1.54-1.604,5.823,1.118,9.554l2.272,3.114l-0.938,0.684c-0.256,0.188-0.378,0.479-0.382,0.776
						c-0.044-0.071-0.091-0.146-0.14-0.209c-0.424-0.589-1.077-1.204-1.451-0.946c-0.48,0.357,0.362,1.54,0.461,1.674
						c0.2,0.275,0.454,0.56,0.702,0.757l-0.097,0.072l0.445,0.611l0.103-0.073c0.157,0.41,0.449,0.828,0.506,0.903
						c0.337,0.466,0.866,1.01,1.242,1.01c0.077,0,0.148-0.021,0.211-0.065c0.48-0.351-0.36-1.536-0.459-1.672
						c-0.041-0.058-0.088-0.114-0.134-0.172c0.083,0.022,0.17,0.038,0.26,0.038c0.207,0,0.404-0.065,0.575-0.188l0.934-0.684
						l3.28,4.494l-3.435,2.511c-1.364,0.994-2.496,2.145-3.189,3.238c-0.721,1.147-0.88,2.111-0.437,2.72
						c0.285,0.384,0.791,0.588,1.467,0.591c1.396,0,3.428-0.855,5.312-2.232l3.438-2.508l3.282,4.494l-1.343,0.981
						c-0.258,0.186-0.38,0.475-0.388,0.771c-0.045-0.07-0.091-0.144-0.136-0.206c-0.358-0.488-0.872-1.009-1.244-1.009
						c-0.079,0-0.149,0.024-0.207,0.065c-0.055,0.038-0.122,0.115-0.144,0.248c-0.056,0.362,0.27,0.974,0.601,1.425
						c0.2,0.276,0.451,0.561,0.701,0.758l-0.097,0.07l0.446,0.613l0.103-0.074c0.154,0.411,0.449,0.829,0.506,0.906
						c0.356,0.488,0.871,1.008,1.241,1.008c0.08,0,0.149-0.021,0.21-0.065c0.482-0.354-0.358-1.534-0.458-1.667
						c-0.042-0.06-0.089-0.12-0.137-0.18c0.085,0.024,0.172,0.04,0.263,0.04c0.208,0,0.405-0.065,0.576-0.188l1.343-0.981
						l2.487,3.407c2.008,2.753,4.723,4.531,6.916,4.531c0.711,0,1.333-0.19,1.844-0.563c3.689-2.695-3.255-16.347-6.23-21.783
						l0.101-0.074l-0.014-0.019l7.937-7.244c1.567,0.773,4.284,2.377,6.218,4.946c0.569,0.756,1.325,1.172,2.127,1.172h0.002
						c0.777,0,1.469-0.407,1.805-1.067C200.283,26.289,200.102,25.253,199.371,24.256z"/>
				</g>
				<g>
					<path fill="#BFBFBF" d="M197.371,22.256c-0.194-0.265-0.421-0.6-0.669-0.967c-1.248-1.846-3.133-4.631-4.97-4.631
						c-0.035,0-0.073,0-0.11,0.004c-0.085,0.005-0.173,0.019-0.258,0.03c0.545-0.566,0.998-1.196,0.837-1.614
						c-0.046-0.114-0.176-0.307-0.554-0.307c-0.364,0-0.905,0.188-1.566,0.531c0.082-0.151,0.157-0.302,0.216-0.453
						c0.678-1.75-1.449-4.458-2.86-6.248c-0.277-0.352-0.523-0.668-0.721-0.935c-0.644-0.881-1.438-1.365-2.236-1.365
						c-0.729,0-1.393,0.414-1.735,1.081c-0.423,0.815-0.301,1.831,0.329,2.72c1.912,2.704,2.599,5.887,2.839,7.581l-9.255,5.317
						l-0.013-0.018l-0.144,0.105c-3.941-4.091-12.788-12.735-17.166-12.735c-0.563,0-1.046,0.145-1.436,0.428
						c-2.103,1.54-1.604,5.823,1.118,9.554l2.272,3.114l-0.938,0.684c-0.256,0.188-0.378,0.479-0.382,0.776
						c-0.044-0.071-0.091-0.146-0.14-0.209c-0.424-0.589-1.077-1.204-1.451-0.946c-0.48,0.357,0.362,1.54,0.461,1.674
						c0.2,0.275,0.454,0.56,0.702,0.757l-0.097,0.072l0.445,0.611l0.103-0.073c0.157,0.41,0.449,0.828,0.506,0.903
						c0.337,0.466,0.866,1.01,1.242,1.01c0.077,0,0.148-0.021,0.211-0.065c0.48-0.351-0.36-1.536-0.459-1.672
						c-0.041-0.058-0.088-0.114-0.134-0.172c0.083,0.022,0.17,0.038,0.26,0.038c0.207,0,0.404-0.065,0.575-0.188l0.934-0.684
						l3.28,4.494l-3.435,2.511c-1.364,0.994-2.496,2.145-3.189,3.238c-0.721,1.147-0.88,2.111-0.437,2.72
						c0.285,0.384,0.791,0.588,1.467,0.591c1.396,0,3.428-0.855,5.312-2.232l3.438-2.508l3.282,4.494l-1.343,0.981
						c-0.258,0.186-0.38,0.475-0.388,0.771c-0.045-0.07-0.091-0.144-0.136-0.206c-0.358-0.488-0.872-1.009-1.244-1.009
						c-0.079,0-0.149,0.024-0.207,0.065c-0.055,0.038-0.122,0.115-0.144,0.248c-0.056,0.362,0.27,0.974,0.601,1.425
						c0.2,0.276,0.451,0.561,0.701,0.758l-0.097,0.07l0.446,0.613l0.103-0.074c0.154,0.411,0.449,0.829,0.506,0.906
						c0.356,0.488,0.871,1.008,1.241,1.008c0.08,0,0.149-0.021,0.21-0.065c0.482-0.354-0.358-1.534-0.458-1.667
						c-0.042-0.06-0.089-0.12-0.137-0.18c0.085,0.024,0.172,0.04,0.263,0.04c0.208,0,0.405-0.065,0.576-0.188l1.343-0.981
						l2.487,3.407c2.008,2.753,4.723,4.531,6.916,4.531c0.711,0,1.333-0.19,1.844-0.563c3.689-2.695-3.255-16.347-6.23-21.783
						l0.101-0.074l-0.014-0.019l7.937-7.244c1.567,0.773,4.284,2.377,6.218,4.946c0.569,0.756,1.325,1.172,2.127,1.172h0.002
						c0.777,0,1.469-0.407,1.805-1.067C198.283,24.289,198.102,23.253,197.371,22.256z"/>
				</g>
			</g>
			<g>
				<g opacity="0.5">
					<path fill="#1D1D1B" d="M458.685,33.807c-0.071-0.046-0.149-0.086-0.225-0.128c0.851-0.148,1.637-0.42,1.637-0.921
						c0-0.543-0.92-0.817-1.846-0.956c0.152-0.073,0.3-0.149,0.434-0.235c1.577-1.013,1.455-4.454,1.37-6.732
						c-0.014-0.448-0.031-0.851-0.031-1.184c0-1.926-1.067-2.789-2.13-2.789c-1.067,0-2.22,0.912-2.245,2.607
						c-0.053,3.312-1.372,6.286-2.176,7.799l-10.612-1.163v-0.02h-0.179c-0.866-6.317-3.345-20.911-7.762-20.911
						c-2.61,0-4.733,3.755-4.733,8.373v3.856h-1.161c-0.315,0-0.585,0.16-0.762,0.395c0.004-0.117,0.008-0.211,0.008-0.244
						c0-0.167-0.018-1.616-0.616-1.616c-0.601,0-0.616,1.449-0.616,1.616c0,0.094,0.01,0.604,0.124,1.026h-0.124v0.758h0.126
						c-0.116,0.424-0.126,0.938-0.126,1.032c0,0.166,0.016,1.616,0.616,1.616c0.599,0,0.616-1.45,0.616-1.616
						c0-0.033-0.004-0.129-0.008-0.246c0.177,0.234,0.446,0.396,0.762,0.396h1.161v5.565h-4.26c-3.609,0-6.435,1.174-6.435,2.673
						c0,1.498,2.825,2.673,6.435,2.673h4.26v5.564h-1.665c-0.317,0-0.585,0.161-0.764,0.396c0.006-0.118,0.008-0.213,0.008-0.247
						c0-0.166-0.016-1.615-0.614-1.615c-0.459,0-0.62,0.869-0.62,1.615c0,0.095,0.01,0.604,0.126,1.028h-0.126v0.762h0.122
						c-0.083,0.303-0.122,0.678-0.122,1.027c0,0.748,0.161,1.616,0.62,1.616c0.599,0,0.614-1.45,0.614-1.616
						c0-0.033-0.002-0.129-0.008-0.246c0.179,0.235,0.446,0.396,0.764,0.396h1.665v4.215c0,4.619,2.123,8.375,4.733,8.375
						c4.568,0,7.014-15.128,7.816-21.271h0.124v-0.021l10.682-1.17c0.809,1.55,2.056,4.446,2.106,7.666
						c0.025,1.692,1.174,2.607,2.245,2.607c0.574,0,1.101-0.251,1.484-0.703c0.423-0.498,0.646-1.224,0.646-2.093
						c0-0.329,0.018-0.732,0.031-1.18C460.14,38.262,460.262,34.82,458.685,33.807z"/>
				</g>
				<g>
					<path fill="#BFBFBF" d="M456.685,31.807c-0.071-0.046-0.149-0.086-0.225-0.128c0.851-0.148,1.637-0.42,1.637-0.921
						c0-0.543-0.92-0.817-1.846-0.956c0.152-0.073,0.3-0.149,0.434-0.235c1.577-1.013,1.455-4.454,1.37-6.732
						c-0.014-0.448-0.031-0.851-0.031-1.184c0-1.926-1.067-2.789-2.13-2.789c-1.067,0-2.22,0.912-2.245,2.607
						c-0.053,3.312-1.372,6.286-2.176,7.799l-10.612-1.163v-0.02h-0.179c-0.866-6.317-3.345-20.911-7.762-20.911
						c-2.61,0-4.733,3.755-4.733,8.373v3.856h-1.161c-0.315,0-0.585,0.16-0.762,0.395c0.004-0.117,0.008-0.211,0.008-0.244
						c0-0.167-0.018-1.616-0.616-1.616c-0.601,0-0.616,1.449-0.616,1.616c0,0.094,0.01,0.604,0.124,1.026h-0.124v0.758h0.126
						c-0.116,0.424-0.126,0.938-0.126,1.032c0,0.166,0.016,1.616,0.616,1.616c0.599,0,0.616-1.45,0.616-1.616
						c0-0.033-0.004-0.129-0.008-0.246c0.177,0.234,0.446,0.396,0.762,0.396h1.161v5.565h-4.26c-3.609,0-6.435,1.174-6.435,2.673
						c0,1.498,2.825,2.673,6.435,2.673h4.26v5.564h-1.665c-0.317,0-0.585,0.161-0.764,0.396c0.006-0.118,0.008-0.213,0.008-0.247
						c0-0.166-0.016-1.615-0.614-1.615c-0.459,0-0.62,0.869-0.62,1.615c0,0.095,0.01,0.604,0.126,1.028h-0.126v0.762h0.122
						c-0.083,0.303-0.122,0.678-0.122,1.027c0,0.748,0.161,1.616,0.62,1.616c0.599,0,0.614-1.45,0.614-1.616
						c0-0.033-0.002-0.129-0.008-0.246c0.179,0.235,0.446,0.396,0.764,0.396h1.665v4.215c0,4.619,2.123,8.375,4.733,8.375
						c4.568,0,7.014-15.128,7.816-21.271h0.124v-0.021l10.682-1.17c0.809,1.55,2.056,4.446,2.106,7.666
						c0.025,1.692,1.174,2.607,2.245,2.607c0.574,0,1.101-0.251,1.484-0.703c0.423-0.498,0.646-1.224,0.646-2.093
						c0-0.329,0.018-0.732,0.031-1.18C458.14,36.262,458.262,32.82,456.685,31.807z"/>
				</g>
			</g>
		</g>
	</g>
	<g>
		<path fill="#434344" d="M307.204,22.863c-1.055,0.017-1.924-0.826-1.94-1.882c-0.016-1.055,0.827-1.923,1.883-1.939
			c1.055-0.018,1.926,0.824,1.942,1.879C309.103,21.979,308.26,22.848,307.204,22.863z"/>
	</g>
	<g>
		<path fill="#434344" d="M299.284,22.849c-1.055,0.013-1.924-0.827-1.94-1.883c-0.016-1.058,0.825-1.926,1.88-1.942
			c1.055-0.016,1.923,0.827,1.943,1.883C301.186,21.961,300.342,22.829,299.284,22.849z"/>
	</g>
	<g>
		<path fill="#434344" d="M289.726,23.374c-1.319,0.02-2.406-1.033-2.429-2.352c-0.021-1.318,1.033-2.407,2.352-2.43
			c1.319-0.019,2.407,1.033,2.43,2.353C292.097,22.267,291.045,23.352,289.726,23.374z"/>
	</g>
	<g>
		
			<linearGradient id="SVGID_2_" gradientUnits="userSpaceOnUse" x1="445.8828" y1="-4576.5889" x2="450.0176" y2="-4576.5889" gradientTransform="matrix(-0.0157 -0.9999 0.9999 -0.0157 4822.1216 404.3984)">
			<stop  offset="0" style="stop-color:#808185"/>
			<stop  offset="1" style="stop-color:#FFFFFF"/>
		</linearGradient>
		<path fill="url(#SVGID_2_)" d="M241.155,29.462l-0.038-2.303c-0.005-0.503-0.423-0.907-0.928-0.901l-2.528,0.041
			c-0.503,0.009-0.907,0.426-0.901,0.93l0.038,2.302c0.006,0.503,0.424,0.906,0.929,0.901l2.528-0.042
			C240.76,30.382,241.161,29.965,241.155,29.462z"/>
		
			<linearGradient id="SVGID_3_" gradientUnits="userSpaceOnUse" x1="446.3037" y1="-4576.5879" x2="449.5977" y2="-4576.5879" gradientTransform="matrix(-0.0157 -0.9999 0.9999 -0.0157 4822.1216 404.3984)">
			<stop  offset="0" style="stop-color:#BBBDBF"/>
			<stop  offset="1" style="stop-color:#FFFFFF"/>
		</linearGradient>
		<path fill="url(#SVGID_3_)" d="M240.711,29.236l-0.031-1.838c-0.008-0.398-0.337-0.723-0.738-0.715l-2.017,0.03
			c-0.401,0.006-0.726,0.341-0.72,0.739l0.029,1.838c0.006,0.402,0.339,0.723,0.739,0.715l2.02-0.03
			C240.392,29.97,240.717,29.638,240.711,29.236z"/>
	</g>
	<g>
		
			<linearGradient id="SVGID_4_" gradientUnits="userSpaceOnUse" x1="455.7021" y1="-4576.7129" x2="459.835" y2="-4576.7129" gradientTransform="matrix(-0.0157 -0.9999 0.9999 -0.0157 4822.1216 404.3984)">
			<stop  offset="0" style="stop-color:#808185"/>
			<stop  offset="1" style="stop-color:#FFFFFF"/>
		</linearGradient>
		<path fill="url(#SVGID_4_)" d="M240.876,19.647l-0.036-2.302c-0.009-0.506-0.426-0.907-0.926-0.902l-2.533,0.041
			c-0.5,0.009-0.906,0.427-0.898,0.929l0.035,2.304c0.009,0.502,0.427,0.906,0.929,0.898l2.531-0.039
			C240.479,20.568,240.887,20.15,240.876,19.647z"/>
		
			<linearGradient id="SVGID_5_" gradientUnits="userSpaceOnUse" x1="456.1211" y1="-4576.7119" x2="459.415" y2="-4576.7119" gradientTransform="matrix(-0.0157 -0.9999 0.9999 -0.0157 4822.1216 404.3984)">
			<stop  offset="0" style="stop-color:#BBBDBF"/>
			<stop  offset="1" style="stop-color:#FFFFFF"/>
		</linearGradient>
		<path fill="url(#SVGID_5_)" d="M240.431,19.422l-0.027-1.838c-0.006-0.398-0.341-0.723-0.742-0.717l-2.017,0.033
			c-0.401,0.005-0.725,0.34-0.715,0.738l0.027,1.838c0.006,0.398,0.339,0.723,0.737,0.715l2.021-0.03
			C240.117,20.156,240.437,19.821,240.431,19.422z"/>
	</g>
	<g>
		
			<linearGradient id="SVGID_6_" gradientUnits="userSpaceOnUse" x1="446.7061" y1="-4565.5371" x2="450.8398" y2="-4565.5371" gradientTransform="matrix(-0.0157 -0.9999 0.9999 -0.0157 4822.1216 404.3984)">
			<stop  offset="0" style="stop-color:#808185"/>
			<stop  offset="1" style="stop-color:#FFFFFF"/>
		</linearGradient>
		<path fill="url(#SVGID_6_)" d="M252.192,28.466l-0.038-2.303c-0.005-0.503-0.423-0.907-0.928-0.901l-2.528,0.041
			c-0.503,0.009-0.907,0.426-0.901,0.93l0.038,2.302c0.006,0.503,0.424,0.906,0.929,0.901l2.528-0.042
			C251.797,29.386,252.198,28.969,252.192,28.466z"/>
		
			<linearGradient id="SVGID_7_" gradientUnits="userSpaceOnUse" x1="447.126" y1="-4565.5366" x2="450.4199" y2="-4565.5366" gradientTransform="matrix(-0.0157 -0.9999 0.9999 -0.0157 4822.1216 404.3984)">
			<stop  offset="0" style="stop-color:#BBBDBF"/>
			<stop  offset="1" style="stop-color:#FFFFFF"/>
		</linearGradient>
		<path fill="url(#SVGID_7_)" d="M251.748,28.24l-0.031-1.838c-0.008-0.398-0.337-0.723-0.738-0.715l-2.017,0.03
			c-0.401,0.006-0.726,0.341-0.72,0.739l0.029,1.838c0.006,0.402,0.339,0.723,0.739,0.715l2.02-0.03
			C251.429,28.974,251.754,28.642,251.748,28.24z"/>
	</g>
	<g>
		
			<linearGradient id="SVGID_8_" gradientUnits="userSpaceOnUse" x1="456.5244" y1="-4565.6621" x2="460.6572" y2="-4565.6621" gradientTransform="matrix(-0.0157 -0.9999 0.9999 -0.0157 4822.1216 404.3984)">
			<stop  offset="0" style="stop-color:#808185"/>
			<stop  offset="1" style="stop-color:#FFFFFF"/>
		</linearGradient>
		<path fill="url(#SVGID_8_)" d="M251.913,18.651l-0.036-2.302c-0.009-0.506-0.426-0.907-0.926-0.902l-2.533,0.041
			c-0.5,0.009-0.906,0.427-0.898,0.929l0.035,2.304c0.009,0.502,0.427,0.906,0.929,0.898l2.531-0.039
			C251.517,19.572,251.924,19.154,251.913,18.651z"/>
		
			<linearGradient id="SVGID_9_" gradientUnits="userSpaceOnUse" x1="456.9434" y1="-4565.6606" x2="460.2383" y2="-4565.6606" gradientTransform="matrix(-0.0157 -0.9999 0.9999 -0.0157 4822.1216 404.3984)">
			<stop  offset="0" style="stop-color:#BBBDBF"/>
			<stop  offset="1" style="stop-color:#FFFFFF"/>
		</linearGradient>
		<path fill="url(#SVGID_9_)" d="M251.468,18.426l-0.027-1.838c-0.006-0.398-0.341-0.723-0.742-0.717l-2.017,0.033
			c-0.401,0.005-0.725,0.34-0.715,0.738l0.027,1.838c0.006,0.398,0.339,0.723,0.737,0.715l2.021-0.03
			C251.154,19.16,251.474,18.825,251.468,18.426z"/>
	</g>
	<g>
		<g>
			<g opacity="0.5">
				
					<rect x="263.557" y="16.55" transform="matrix(-0.9999 0.0158 -0.0158 -0.9999 534.7783 39.8865)" fill="#1D1D1B" width="7.349" height="11.016"/>
			</g>
			<g>
				<g>
					
						<rect x="262.557" y="15.55" transform="matrix(-0.9999 0.0158 -0.0158 -0.9999 532.7626 37.9024)" fill="#808185" width="7.349" height="11.016"/>
				</g>
			</g>
		</g>
		<g>
			<g opacity="0.5">
				<path fill="#1D1D1B" d="M277.56,24.26c0.005,0.354-0.336,0.646-0.765,0.653l-2.291,0.033c-0.423,0.008-0.774-0.274-0.78-0.626
					l-0.06-3.992c-0.006-0.354,0.335-0.648,0.758-0.654l2.291-0.035c0.429-0.009,0.774,0.273,0.78,0.629"/>
			</g>
			<g>
				<path fill="#808185" d="M276.56,23.26c0.005,0.354-0.336,0.646-0.765,0.653l-2.291,0.033c-0.423,0.008-0.774-0.274-0.78-0.626
					l-0.06-3.992c-0.006-0.354,0.335-0.648,0.758-0.654l2.291-0.035c0.429-0.009,0.774,0.273,0.78,0.629"/>
			</g>
		</g>
		<g>
			<g>
				
					<rect x="272.445" y="21.116" transform="matrix(0.0164 0.9999 -0.9999 0.0164 289.8273 -252.0882)" fill="#221E20" width="1.192" height="0.297"/>
			</g>
		</g>
		<path fill="#221E20" d="M276.29,22.842l-0.005-0.376c-0.004-0.104,0.099-0.19,0.219-0.192l0,0
			c0.127-0.003,0.231,0.079,0.231,0.184l0.008,0.376c0.003,0.104-0.101,0.192-0.223,0.192l0,0
			C276.395,23.029,276.29,22.946,276.29,22.842z"/>
		<path fill="#221E20" d="M276.259,20.002l-0.005-0.376c-0.004-0.104,0.099-0.19,0.219-0.192l0,0
			c0.127-0.003,0.231,0.079,0.231,0.184l0.008,0.376c0.003,0.104-0.101,0.192-0.223,0.192l0,0
			C276.363,20.189,276.259,20.106,276.259,20.002z"/>
	</g>
</g>
</svg>
