<?xml version="1.0" encoding="utf-8"?>
<!-- Generator: Adobe Illustrator 15.1.0, SVG Export Plug-In . SVG Version: 6.00 Build 0)  -->
<!DOCTYPE svg PUBLIC "-//W3C//DTD SVG 1.1//EN" "http://www.w3.org/Graphics/SVG/1.1/DTD/svg11.dtd">
<svg version="1.1" id="Layer_1" xmlns="http://www.w3.org/2000/svg" xmlns:xlink="http://www.w3.org/1999/xlink" x="0px" y="0px"
	 width="400px" height="100px" viewBox="0 0 400 100" enable-background="new 0 0 400 100" xml:space="preserve">
<g>
	<g>
		<g>
			<g>
				<path fill="#010202" d="M0.562,48.192c0,0,59.529,46.851,132.963,46.851h34.329c0,0,185.446-5.996,186.128-5.996
					c23.226,0,42.054-18.201,42.054-40.655c0-22.447-18.828-40.648-42.054-40.648c-1.272,0-186.128-6.306-186.128-6.306
					S136.279,1.34,133.525,1.34C60.092,1.34,0.562,48.192,0.562,48.192z"/>
			</g>
		</g>
		<g>
			<g>
				<g>
					<g opacity="0.5">
						<path d="M4.526,52.156c0,0,59.529,46.852,132.963,46.852h34.329c0,0,185.446-5.998,186.128-5.998
							C381.172,93.01,400,74.811,400,52.355c0-22.447-18.828-40.648-42.054-40.648c-1.272,0-186.128-6.306-186.128-6.306
							s-31.575-0.098-34.329-0.098C64.056,5.304,4.526,52.156,4.526,52.156z"/>
					</g>
					<g>
						
							<linearGradient id="SVGID_1_" gradientUnits="userSpaceOnUse" x1="247.8008" y1="-44.6069" x2="341.5039" y2="-44.6069" gradientTransform="matrix(0 -1 1 0 242.9062 342.8438)">
							<stop  offset="0" style="stop-color:#707070"/>
							<stop  offset="1" style="stop-color:#FFFFFF"/>
						</linearGradient>
						<path fill="url(#SVGID_1_)" d="M0.562,48.192c0,0,59.529,46.851,132.963,46.851h34.329c0,0,185.446-5.996,186.128-5.996
							c23.226,0,42.054-18.201,42.054-40.655c0-22.447-18.828-40.648-42.054-40.648c-1.272,0-186.128-6.306-186.128-6.306
							S136.279,1.34,133.525,1.34C60.092,1.34,0.562,48.192,0.562,48.192z"/>
					</g>
				</g>
				<path fill="#A7A9AC" d="M167.86,95.391h-34.335c-72.714,0-132.583-46.458-133.178-46.925L0,48.192l0.348-0.275
					C0.942,47.451,60.812,0.993,133.525,0.993c2.754,0,34.329,0.097,34.329,0.097c1.859,0.062,184.877,6.306,186.128,6.306
					c23.38,0,42.401,18.392,42.401,40.997c0,22.61-19.021,41.002-42.401,41.002c-0.964,0.012-184.266,5.936-186.116,5.996H167.86z
					 M1.132,48.192c5.062,3.845,62.84,46.503,132.394,46.503h34.324c7.652-0.246,185.454-5.996,186.133-5.996
					c22.997,0,41.705-18.08,41.705-40.307c0-22.222-18.708-40.301-41.705-40.301c-1.265,0-178.592-6.048-186.139-6.306l0,0
					c-0.052,0-31.568-0.099-34.318-0.099C63.972,1.687,6.194,44.346,1.132,48.192z"/>
			</g>
			<g>
				
					<linearGradient id="SVGID_2_" gradientUnits="userSpaceOnUse" x1="253.3516" y1="-44.6055" x2="335.959" y2="-44.6055" gradientTransform="matrix(0 -1 1 0 242.9062 342.8438)">
					<stop  offset="0" style="stop-color:#FFFFFF"/>
					<stop  offset="1" style="stop-color:#707070"/>
				</linearGradient>
				<path fill="url(#SVGID_2_)" d="M23.982,48.192c0,0,52.48,41.3,117.212,41.3h30.264c0,0,163.488-5.285,164.088-5.285
					c20.477,0,37.073-16.045,37.073-35.836c0-19.792-16.597-35.837-37.073-35.837c-1.121,0-164.088-5.562-164.088-5.562
					s-27.834-0.087-30.264-0.087C76.463,6.885,23.982,48.192,23.982,48.192z"/>
				<path fill="#A7A9AC" d="M171.458,89.537h-30.264c-14.769,0-30.124-2.17-45.636-6.457c-12.408-3.424-24.947-8.201-37.266-14.197
					C37.322,58.672,24.086,48.331,23.956,48.227l-0.044-0.035l0.044-0.035c0.13-0.104,13.366-10.447,34.337-20.659
					c12.318-5.996,24.857-10.772,37.266-14.2c15.512-4.286,30.867-6.456,45.636-6.456c2.402,0,29.987,0.085,30.264,0.087
					c1.632,0.055,162.98,5.562,164.088,5.562c9.915,0,19.235,3.731,26.245,10.507c7.012,6.778,10.87,15.79,10.87,25.373
					c0,9.584-3.858,18.594-10.87,25.374c-7.01,6.775-16.33,10.508-26.245,10.508c-0.592,0-162.45,5.232-164.085,5.285H171.458z
					 M24.056,48.192c0.861,0.671,13.924,10.703,34.278,20.611c19.35,9.418,49.432,20.646,82.86,20.646h30.264
					c1.714-0.057,163.493-5.285,164.088-5.285c20.416,0,37.028-16.057,37.028-35.793c0-19.735-16.612-35.792-37.028-35.792
					c-1.11,0-162.458-5.506-164.091-5.562c-0.276,0-27.858-0.088-30.261-0.088c-33.429,0-63.511,11.23-82.86,20.648
					C37.979,37.486,24.917,47.521,24.056,48.192z"/>
			</g>
			<path fill="#595A5C" d="M60.238,51.211c1.585,0.033,2.9-1.189,2.934-2.721c0.029-1.536-1.231-2.808-2.819-2.834
				c-1.211-0.027-2.261,0.679-2.706,1.694l-2.751-0.056l0.063-2.899c0.613-0.152,1.075-0.69,1.089-1.336
				c0.013-0.782-0.628-1.429-1.437-1.439c-0.811-0.021-1.478,0.604-1.494,1.385c-0.011,0.646,0.427,1.201,1.035,1.379l-0.057,2.896
				l-10.31-0.202c0.064-0.532,0.179-1.091,0.337-1.705c0.377-1.391,1.01-3.062,1.901-5.426l0.57,0.603
				c0.217,0.229,0.63,0.169,0.743-0.113l1.173-2.841c0.115-0.278-0.154-0.565-0.488-0.517l-3.367,0.517
				c-0.331,0.054-0.476,0.401-0.259,0.63l0.521,0.554c-2.734,2.081-4.322,4.866-4.755,7.778l-1.877,0.993
				c-0.365,0.201-0.377,0.7-0.018,0.913l1.851,1.08c0.349,2.857,1.804,5.634,4.378,7.773l-0.662,0.615
				c-0.228,0.217-0.111,0.57,0.217,0.639l3.324,0.723c0.326,0.07,0.617-0.195,0.521-0.482l-0.969-2.912
				c-0.096-0.281-0.503-0.369-0.736-0.158l-0.505,0.475c-1.113-3.348-1.766-5.334-1.94-7.073l10.305,0.2l-0.06,2.841l0.401,0.012
				l0.402,0.004l0.058-2.839l2.75,0.053C58.011,50.446,59.027,51.189,60.238,51.211z M60.33,46.66
				c1.016,0.017,1.819,0.825,1.799,1.81c-0.017,0.977-0.858,1.754-1.872,1.737c-1.012-0.017-1.822-0.831-1.8-1.809
				C58.479,47.415,59.315,46.639,60.33,46.66z M54.394,52.195c0.81,0.01,1.449,0.662,1.434,1.439
				c-0.016,0.781-0.684,1.4-1.494,1.391c-0.808-0.018-1.449-0.664-1.433-1.445C52.917,52.797,53.584,52.178,54.394,52.195z"/>
			<g>
				<path fill="#595A5C" d="M67.082,62.965l0.993,0.955l0.896-0.863l3.34,3.229l-0.896,0.867l0.993,0.957
					c0.805,0.781,2.475,0.434,3.716-0.766c1.238-1.195,1.597-2.814,0.792-3.592l-0.992-0.961l-0.897,0.869l-3.34-3.232l0.896-0.863
					l-0.994-0.961c-0.804-0.775-2.477-0.428-3.716,0.766C66.636,60.57,66.278,62.189,67.082,62.965z"/>
				<path fill="#595A5C" d="M72.409,28.269l-0.993,0.961l0.896,0.869l-3.34,3.227l-0.896-0.869l-0.993,0.961
					c-0.804,0.777-0.446,2.396,0.792,3.597c1.239,1.194,2.912,1.542,3.716,0.76l0.994-0.956l-0.896-0.868l3.34-3.227l0.897,0.869
					l0.992-0.967c0.805-0.771,0.446-2.39-0.792-3.59C74.884,27.84,73.214,27.493,72.409,28.269z"/>
			</g>
			<g>
				<g>
					<path fill="#A7A9AC" d="M354.086,35.21v24.848c0,8.734-7.39,15.871-16.422,15.871H99.483c-9.03,0-16.423-7.137-16.423-15.871
						V35.21c0-8.729,7.393-15.87,16.423-15.87h238.181C346.696,19.34,354.086,26.482,354.086,35.21z"/>
					<path fill="#A7A9AC" d="M337.664,75.982H99.483c-9.085,0-16.475-7.143-16.475-15.924V35.21c0-8.78,7.39-15.923,16.475-15.923
						h238.181c9.085,0,16.474,7.143,16.474,15.923v24.848C354.138,68.84,346.749,75.982,337.664,75.982z M99.483,19.391
						c-9.027,0-16.371,7.097-16.371,15.819v24.848c0,8.723,7.344,15.818,16.371,15.818h238.181c9.027,0,16.37-7.096,16.37-15.818
						V35.21c0-8.723-7.343-15.819-16.37-15.819H99.483z"/>
				</g>
			</g>
			<g>
				<g>
					<g>
						<g>
							<g>
								<g opacity="0.5">
									<rect x="347.653" y="46.569" width="22.66" height="1.781"/>
								</g>
								<g>
									
										<linearGradient id="SVGID_3_" gradientUnits="userSpaceOnUse" x1="-1627.7739" y1="3978.3838" x2="-1625.9927" y2="3978.3838" gradientTransform="matrix(0 1 -1 0 4335.3672 1672.3428)">
										<stop  offset="0" style="stop-color:#707070"/>
										<stop  offset="1" style="stop-color:#F1F2F2"/>
									</linearGradient>
									<rect x="345.653" y="44.569" fill="url(#SVGID_3_)" width="22.66" height="1.781"/>
								</g>
							</g>
							<path fill="#939599" d="M368.355,46.391h-22.743v-1.863h22.743V46.391z M345.694,46.309h22.578V44.61h-22.578V46.309z"/>
						</g>
						<g>
							<g>
								<g opacity="0.5">
									<rect x="347.653" y="51.695" width="22.66" height="1.787"/>
								</g>
								<g>
									
										<linearGradient id="SVGID_4_" gradientUnits="userSpaceOnUse" x1="-1622.647" y1="3978.3838" x2="-1620.8604" y2="3978.3838" gradientTransform="matrix(0 1 -1 0 4335.3672 1672.3428)">
										<stop  offset="0" style="stop-color:#707070"/>
										<stop  offset="1" style="stop-color:#F1F2F2"/>
									</linearGradient>
									<rect x="345.653" y="49.696" fill="url(#SVGID_4_)" width="22.66" height="1.787"/>
								</g>
							</g>
							<path fill="#939599" d="M368.355,51.523h-22.743v-1.869h22.743V51.523z M345.694,51.441h22.578v-1.705h-22.578V51.441z"/>
						</g>
						<g>
							<g>
								<g opacity="0.5">
									<path d="M329.072,55.605V44.444c0-2.204,1.872-4.013,4.157-4.013h12.118c2.285,0,4.155,1.809,4.155,4.013v11.162
										c0,2.213-1.87,4.016-4.155,4.016h-12.118C330.944,59.621,329.072,57.818,329.072,55.605z"/>
								</g>
								<g>
									
										<linearGradient id="SVGID_5_" gradientUnits="userSpaceOnUse" x1="-1633.9116" y1="3998.0801" x2="-1614.7217" y2="3998.0801" gradientTransform="matrix(0 1 -1 0 4335.3672 1672.3428)">
										<stop  offset="0" style="stop-color:#707070"/>
										<stop  offset="1" style="stop-color:#BCBEC0"/>
									</linearGradient>
									<path fill="url(#SVGID_5_)" d="M327.072,53.605V42.444c0-2.204,1.872-4.013,4.157-4.013h12.118
										c2.285,0,4.155,1.809,4.155,4.013v11.162c0,2.213-1.87,4.016-4.155,4.016h-12.118
										C328.944,57.621,327.072,55.818,327.072,53.605z"/>
								</g>
							</g>
							<path fill="#939599" d="M343.348,57.66h-12.118c-2.313,0-4.197-1.818-4.197-4.055V42.444c0-2.234,1.884-4.053,4.197-4.053
								h12.118c2.314,0,4.196,1.818,4.196,4.053v11.162C347.544,55.842,345.662,57.66,343.348,57.66z M331.229,38.472
								c-2.269,0-4.116,1.781-4.116,3.972v11.162c0,2.193,1.848,3.975,4.116,3.975h12.118c2.271,0,4.114-1.781,4.114-3.975V42.444
								c0-2.19-1.844-3.972-4.114-3.972H331.229z"/>
						</g>
						<g>
							
								<linearGradient id="SVGID_6_" gradientUnits="userSpaceOnUse" x1="-1632.6509" y1="3998.0801" x2="-1615.9775" y2="3998.0801" gradientTransform="matrix(0 1 -1 0 4335.3672 1672.3428)">
								<stop  offset="0" style="stop-color:#BCBEC0"/>
								<stop  offset="1" style="stop-color:#707070"/>
							</linearGradient>
							<path fill="url(#SVGID_6_)" d="M328.411,52.873v-9.694c0-1.924,1.628-3.487,3.612-3.487h10.529
								c1.984,0,3.611,1.563,3.611,3.487v9.694c0,1.918-1.627,3.492-3.611,3.492h-10.529
								C330.039,56.365,328.411,54.791,328.411,52.873z"/>
							<path fill="#939599" d="M342.553,56.406h-10.529c-2.012,0-3.653-1.586-3.653-3.533v-9.694c0-1.945,1.642-3.527,3.653-3.527
								h10.529c2.013,0,3.652,1.582,3.652,3.527v9.694C346.205,54.82,344.565,56.406,342.553,56.406z M332.023,39.733
								c-1.97,0-3.572,1.545-3.572,3.446v9.694c0,1.904,1.603,3.453,3.572,3.453h10.529c1.968,0,3.57-1.549,3.57-3.453v-9.694
								c0-1.901-1.603-3.446-3.57-3.446H332.023z"/>
						</g>
					</g>
				</g>
				<g>
					<g>
						<g>
							<path fill="#010202" d="M334.128,45.215v-2.982c0-0.592,0.5-1.076,1.111-1.076h3.242c0.61,0,1.11,0.484,1.11,1.076v2.982
								c0,0.598-0.5,1.075-1.11,1.075h-3.242C334.628,46.291,334.128,45.813,334.128,45.215z"/>
						</g>
						<path fill="#595A5C" d="M334.128,45.215v-2.982c0-0.592,0.5-1.076,1.111-1.076h3.242c0.61,0,1.11,0.484,1.11,1.076v2.982
							c0,0.598-0.5,1.075-1.11,1.075h-3.242C334.628,46.291,334.128,45.813,334.128,45.215z"/>
					</g>
					<g>
						<g>
							<path fill="#010202" d="M334.128,53.406v-2.982c0-0.592,0.5-1.076,1.111-1.076h3.242c0.61,0,1.11,0.484,1.11,1.076v2.982
								c0,0.598-0.5,1.074-1.11,1.074h-3.242C334.628,54.48,334.128,54.004,334.128,53.406z"/>
						</g>
						<path fill="#595A5C" d="M334.128,53.406v-2.982c0-0.592,0.5-1.076,1.111-1.076h3.242c0.61,0,1.11,0.484,1.11,1.076v2.982
							c0,0.598-0.5,1.074-1.11,1.074h-3.242C334.628,54.48,334.128,54.004,334.128,53.406z"/>
					</g>
				</g>
			</g>
			<g>
				<g>
					<path fill="#010202" d="M168.995,25.249c-6.582,0-12.202-1.89-14.493-4.566h-5.274c-7.278,0-13.178,11.727-13.178,26.194
						c0,14.465,5.899,26.19,13.178,26.19h5.274c2.291-2.672,7.911-4.566,14.493-4.566c4.494,0,8.535,0.881,11.376,2.293
						c2.737,1.357,6.453,0.998,8.631-0.854c1.922-1.641,3.096-3.803,3.096-6.176V62.27h16.667c5.996,0,10.906-3.721,10.906-8.271
						V39.751c0-4.552-4.91-8.272-10.906-8.272h-16.667v-1.494c0-2.373-1.174-4.529-3.096-6.169
						c-2.178-1.858-5.894-2.217-8.631-0.858C177.53,24.37,173.489,25.249,168.995,25.249z"/>
				</g>
				<g>
					<g opacity="0.5">
						<path d="M170.995,27.249c-6.582,0-12.202-1.89-14.493-4.566h-5.274c-7.278,0-13.178,11.727-13.178,26.194
							c0,14.465,5.899,26.19,13.178,26.19h5.274c2.291-2.672,7.911-4.566,14.493-4.566c4.494,0,8.535,0.881,11.376,2.293
							c2.737,1.357,6.453,0.998,8.631-0.854c1.922-1.641,3.096-3.803,3.096-6.176V64.27h16.667c5.996,0,10.906-3.721,10.906-8.271
							V41.751c0-4.552-4.91-8.272-10.906-8.272h-16.667v-1.494c0-2.373-1.174-4.529-3.096-6.169
							c-2.178-1.858-5.894-2.217-8.631-0.858C179.53,26.37,175.489,27.249,170.995,27.249z"/>
					</g>
					<g>
						<path fill="#808386" d="M168.995,25.249c-6.582,0-12.202-1.89-14.493-4.566h-5.274c-7.278,0-13.178,11.727-13.178,26.194
							c0,14.465,5.899,26.19,13.178,26.19h5.274c2.291-2.672,7.911-4.566,14.493-4.566c4.494,0,8.535,0.881,11.376,2.293
							c2.737,1.357,6.453,0.998,8.631-0.854c1.922-1.641,3.096-3.803,3.096-6.176V62.27h16.667c5.996,0,10.906-3.721,10.906-8.271
							V39.751c0-4.552-4.91-8.272-10.906-8.272h-16.667v-1.494c0-2.373-1.174-4.529-3.096-6.169
							c-2.178-1.858-5.894-2.217-8.631-0.858C177.53,24.37,173.489,25.249,168.995,25.249z"/>
					</g>
				</g>
			</g>
			<g>
				<g>
					<path fill="#010202" d="M86.939,46.905c0,8.984,7.615,16.597,18.165,19.277l24.928-5.857V33.477l-24.928-5.86
						C94.555,30.3,86.939,37.916,86.939,46.905z"/>
				</g>
				<g>
					<g opacity="0.5">
						<path d="M88.939,48.905c0,8.984,7.615,16.597,18.165,19.277l24.928-5.857V35.477l-24.928-5.86
							C96.555,32.3,88.939,39.916,88.939,48.905z"/>
					</g>
					<g>
						<path fill="#808386" d="M86.939,46.905c0,8.984,7.615,16.597,18.165,19.277l24.928-5.857V33.477l-24.928-5.86
							C94.555,30.3,86.939,37.916,86.939,46.905z"/>
					</g>
				</g>
			</g>
			<g>
				<g>
					<g>
						<g>
							<path fill="#010202" d="M121.413,40.93v11.162c0,2.205-1.869,4.014-4.156,4.014H105.14c-2.286,0-4.154-1.809-4.154-4.014
								V40.93c0-2.205,1.868-4.015,4.154-4.015h12.117C119.544,36.916,121.413,38.725,121.413,40.93z"/>
							<g>
								<rect x="80.174" y="48.181" fill="#010202" width="22.657" height="1.786"/>
								<rect x="80.174" y="43.053" fill="#010202" width="22.657" height="1.781"/>
							</g>
						</g>
					</g>
					<g>
						<g>
							
								<linearGradient id="SVGID_7_" gradientUnits="userSpaceOnUse" x1="292.877" y1="-151.4038" x2="294.6621" y2="-151.4038" gradientTransform="matrix(0 -1 1 0 242.9062 342.8438)">
								<stop  offset="0" style="stop-color:#707070"/>
								<stop  offset="1" style="stop-color:#F1F2F2"/>
							</linearGradient>
							<rect x="80.174" y="48.181" fill="url(#SVGID_7_)" width="22.657" height="1.786"/>
							<path fill="#939599" d="M102.872,50.008H80.133v-1.867h22.739V50.008z M80.216,49.927h22.575v-1.705H80.216V49.927z"/>
						</g>
						<g>
							
								<linearGradient id="SVGID_8_" gradientUnits="userSpaceOnUse" x1="298.0098" y1="-151.4038" x2="299.791" y2="-151.4038" gradientTransform="matrix(0 -1 1 0 242.9062 342.8438)">
								<stop  offset="0" style="stop-color:#707070"/>
								<stop  offset="1" style="stop-color:#F1F2F2"/>
							</linearGradient>
							<rect x="80.174" y="43.053" fill="url(#SVGID_8_)" width="22.657" height="1.781"/>
							<path fill="#939599" d="M102.872,44.875H80.133v-1.863h22.739V44.875z M80.216,44.794h22.575v-1.7H80.216V44.794z"/>
						</g>
						<g>
							
								<linearGradient id="SVGID_9_" gradientUnits="userSpaceOnUse" x1="286.7383" y1="-131.707" x2="305.9277" y2="-131.707" gradientTransform="matrix(0 -1 1 0 242.9062 342.8438)">
								<stop  offset="0" style="stop-color:#707070"/>
								<stop  offset="1" style="stop-color:#BCBEC0"/>
							</linearGradient>
							<path fill="url(#SVGID_9_)" d="M121.413,40.93v11.162c0,2.205-1.869,4.014-4.156,4.014H105.14
								c-2.286,0-4.154-1.809-4.154-4.014V40.93c0-2.205,1.868-4.015,4.154-4.015h12.117
								C119.544,36.916,121.413,38.725,121.413,40.93z"/>
							<path fill="#939599" d="M117.257,56.146H105.14c-2.313,0-4.195-1.82-4.195-4.055V40.93c0-2.234,1.882-4.055,4.195-4.055
								h12.117c2.314,0,4.196,1.82,4.196,4.055v11.162C121.453,54.326,119.571,56.146,117.257,56.146z M105.14,36.957
								c-2.27,0-4.114,1.781-4.114,3.974v11.162c0,2.191,1.845,3.973,4.114,3.973h12.117c2.271,0,4.115-1.781,4.115-3.973V40.93
								c0-2.192-1.845-3.974-4.115-3.974H105.14z"/>
						</g>
						<g>
							
								<linearGradient id="SVGID_10_" gradientUnits="userSpaceOnUse" x1="287.9922" y1="-131.709" x2="304.668" y2="-131.709" gradientTransform="matrix(0 -1 1 0 242.9062 342.8438)">
								<stop  offset="0" style="stop-color:#BCBEC0"/>
								<stop  offset="1" style="stop-color:#707070"/>
							</linearGradient>
							<path fill="url(#SVGID_10_)" d="M120.073,41.663v9.695c0,1.924-1.624,3.494-3.608,3.494h-10.532
								c-1.984,0-3.611-1.57-3.611-3.494v-9.695c0-1.917,1.627-3.486,3.611-3.486h10.532
								C118.449,38.176,120.073,39.746,120.073,41.663z"/>
							<path fill="#939599" d="M116.465,54.891h-10.532c-2.012,0-3.652-1.586-3.652-3.533v-9.695c0-1.944,1.641-3.527,3.652-3.527
								h10.532c2.012,0,3.649,1.583,3.649,3.527v9.695C120.114,53.305,118.477,54.891,116.465,54.891z M105.933,38.216
								c-1.969,0-3.57,1.546-3.57,3.446v9.695c0,1.904,1.602,3.453,3.57,3.453h10.532c1.97,0,3.568-1.549,3.568-3.453v-9.695
								c0-1.9-1.599-3.446-3.568-3.446H105.933z"/>
						</g>
					</g>
				</g>
				<g>
					<g>
						<g>
							<path fill="#010202" d="M114.357,49.317v2.986c0,0.594-0.498,1.076-1.108,1.076h-3.242c-0.614,0-1.113-0.482-1.113-1.076
								v-2.986c0-0.587,0.499-1.07,1.113-1.07h3.242C113.859,48.247,114.357,48.73,114.357,49.317z"/>
						</g>
						<path fill="#595A5C" d="M114.357,49.317v2.986c0,0.594-0.498,1.076-1.108,1.076h-3.242c-0.614,0-1.113-0.482-1.113-1.076
							v-2.986c0-0.587,0.499-1.07,1.113-1.07h3.242C113.859,48.247,114.357,48.73,114.357,49.317z"/>
					</g>
					<g>
						<g>
							<path fill="#010202" d="M114.357,41.125v2.987c0,0.599-0.498,1.075-1.108,1.075h-3.242c-0.614,0-1.113-0.477-1.113-1.075
								v-2.987c0-0.586,0.499-1.07,1.113-1.07h3.242C113.859,40.055,114.357,40.54,114.357,41.125z"/>
						</g>
						<path fill="#595A5C" d="M114.357,41.125v2.987c0,0.599-0.498,1.075-1.108,1.075h-3.242c-0.614,0-1.113-0.477-1.113-1.075
							v-2.987c0-0.586,0.499-1.07,1.113-1.07h3.242C113.859,40.055,114.357,40.54,114.357,41.125z"/>
					</g>
				</g>
			</g>
			<g>
				<g>
					<g>
						<path fill="#231F20" d="M312.69,30.284v30.982c0,2.754-4.881,4.98-10.903,4.98H269.39c-6.02,0-10.9-2.227-10.9-4.98V30.284
							c0-2.754,4.881-4.98,10.9-4.98h32.397C307.81,25.303,312.69,27.53,312.69,30.284z"/>
					</g>
				</g>
				<g>
					<g opacity="0.5">
						<path d="M314.69,32.284v30.982c0,2.754-4.881,4.98-10.903,4.98H271.39c-6.02,0-10.9-2.227-10.9-4.98V32.284
							c0-2.754,4.881-4.98,10.9-4.98h32.397C309.81,27.303,314.69,29.53,314.69,32.284z"/>
					</g>
					<g>
						<path fill="#808386" d="M312.69,30.284v30.982c0,2.754-4.881,4.98-10.903,4.98H269.39c-6.02,0-10.9-2.227-10.9-4.98V30.284
							c0-2.754,4.881-4.98,10.9-4.98h32.397C307.81,25.303,312.69,27.53,312.69,30.284z"/>
					</g>
				</g>
			</g>
		</g>
	</g>
	<g>
		<g>
			<g opacity="0.5">
				
					<rect x="220.356" y="8.971" transform="matrix(0.6861 -0.7276 0.7276 0.6861 54.8349 167.2923)" width="1.812" height="22.274"/>
			</g>
			<g>
				
					<linearGradient id="SVGID_11_" gradientUnits="userSpaceOnUse" x1="-878.2246" y1="130.7715" x2="-876.4121" y2="130.7715" gradientTransform="matrix(0.686 -0.7276 0.7276 0.686 725.9287 -709.9565)">
					<stop  offset="0" style="stop-color:#707070"/>
					<stop  offset="1" style="stop-color:#F1F2F2"/>
				</linearGradient>
				<polygon fill="url(#SVGID_11_)" points="227.987,25.088 226.744,26.407 210.537,11.127 211.78,9.809 				"/>
			</g>
		</g>
		<g>
			<g opacity="0.5">
				
					<rect x="223.935" y="5.173" transform="matrix(0.6861 -0.7275 0.7275 0.6861 58.7096 168.6907)" width="1.818" height="22.273"/>
			</g>
			<g>
				
					<linearGradient id="SVGID_12_" gradientUnits="userSpaceOnUse" x1="-873.0063" y1="130.7705" x2="-871.1885" y2="130.7705" gradientTransform="matrix(0.686 -0.7276 0.7276 0.686 725.9287 -709.9565)">
					<stop  offset="0" style="stop-color:#707070"/>
					<stop  offset="1" style="stop-color:#F1F2F2"/>
				</linearGradient>
				<polygon fill="url(#SVGID_12_)" points="231.57,21.288 230.323,22.61 214.117,7.331 215.362,6.008 				"/>
			</g>
		</g>
		<g>
			<g opacity="0.5">
				<path d="M248.342,34.251l-7.786,8.258c-1.54,1.632-4.138,1.708-5.774,0.165l-8.667-8.17c-1.637-1.543-1.712-4.141-0.172-5.773
					l7.784-8.257c1.541-1.634,4.138-1.711,5.774-0.169l8.667,8.171C249.805,30.018,249.882,32.618,248.342,34.251z"/>
			</g>
			<g>
				
					<linearGradient id="SVGID_13_" gradientUnits="userSpaceOnUse" x1="-884.4648" y1="150.1348" x2="-864.9507" y2="150.1348" gradientTransform="matrix(0.686 -0.7276 0.7276 0.686 725.9287 -709.9565)">
					<stop  offset="0" style="stop-color:#707070"/>
					<stop  offset="1" style="stop-color:#BCBEC0"/>
				</linearGradient>
				<path fill="url(#SVGID_13_)" d="M246.342,32.251l-7.786,8.258c-1.54,1.632-4.138,1.708-5.774,0.165l-8.667-8.17
					c-1.637-1.543-1.712-4.141-0.172-5.773l7.784-8.257c1.541-1.634,4.138-1.711,5.774-0.169l8.667,8.171
					C247.805,28.018,247.882,30.618,246.342,32.251z"/>
			</g>
		</g>
		
			<linearGradient id="SVGID_14_" gradientUnits="userSpaceOnUse" x1="-883.189" y1="150.1328" x2="-866.2275" y2="150.1328" gradientTransform="matrix(0.686 -0.7276 0.7276 0.686 725.9287 -709.9565)">
			<stop  offset="0" style="stop-color:#BCBEC0"/>
			<stop  offset="1" style="stop-color:#707070"/>
		</linearGradient>
		<path fill="url(#SVGID_14_)" d="M244.872,31.887l-6.764,7.176c-1.34,1.422-3.599,1.486-5.02,0.148l-7.531-7.103
			c-1.42-1.337-1.487-3.595-0.146-5.017l6.763-7.175c1.339-1.42,3.598-1.486,5.018-0.147l7.533,7.101
			C246.144,28.209,246.211,30.467,244.872,31.887z"/>
		<path fill="#595A5C" d="M235.442,33.702l-2.08,2.207c-0.414,0.439-1.108,0.461-1.547,0.045l-2.32-2.187
			c-0.438-0.413-0.457-1.106-0.044-1.545l2.082-2.208c0.412-0.438,1.107-0.462,1.545-0.048l2.32,2.188
			C235.838,32.568,235.856,33.262,235.442,33.702z"/>
		<path fill="#595A5C" d="M241.157,27.64l-2.083,2.209c-0.413,0.438-1.107,0.46-1.547,0.046l-2.319-2.187
			c-0.438-0.414-0.456-1.108-0.044-1.545l2.083-2.21c0.412-0.438,1.104-0.459,1.544-0.046l2.318,2.187
			C241.549,26.508,241.569,27.203,241.157,27.64z"/>
	</g>
	<g>
		<g>
			<g opacity="0.5">
				
					<rect x="227.339" y="66.523" transform="matrix(-0.7281 -0.6855 0.6855 -0.7281 341.1869 290.6656)" width="1.812" height="22.275"/>
			</g>
			<g>
				
					<linearGradient id="SVGID_15_" gradientUnits="userSpaceOnUse" x1="488.2637" y1="1020.1152" x2="490.0771" y2="1020.1152" gradientTransform="matrix(-0.7276 -0.686 0.686 -0.7276 -117.5962 1153.4805)">
					<stop  offset="0" style="stop-color:#707070"/>
					<stop  offset="1" style="stop-color:#F1F2F2"/>
				</linearGradient>
				<polygon fill="url(#SVGID_15_)" points="233.225,66.936 234.544,68.178 219.265,84.387 217.946,83.141 				"/>
			</g>
		</g>
		<g>
			<g opacity="0.5">
				
					<rect x="223.538" y="62.942" transform="matrix(-0.7275 -0.6861 0.6861 -0.7275 336.907 281.9634)" width="1.816" height="22.273"/>
			</g>
			<g>
				
					<linearGradient id="SVGID_16_" gradientUnits="userSpaceOnUse" x1="493.4824" y1="1020.1162" x2="495.3008" y2="1020.1162" gradientTransform="matrix(-0.7276 -0.686 0.686 -0.7276 -117.5962 1153.4805)">
					<stop  offset="0" style="stop-color:#707070"/>
					<stop  offset="1" style="stop-color:#F1F2F2"/>
				</linearGradient>
				<polygon fill="url(#SVGID_16_)" points="229.425,63.352 230.746,64.598 215.468,80.805 214.146,79.559 				"/>
			</g>
		</g>
		<g>
			<g opacity="0.5">
				<path d="M242.388,50.58l8.259,7.786c1.633,1.541,1.708,4.139,0.165,5.775l-8.17,8.666c-1.543,1.637-4.141,1.713-5.772,0.174
					l-8.259-7.785c-1.634-1.541-1.71-4.139-0.168-5.773l8.171-8.667C238.156,49.118,240.754,49.041,242.388,50.58z"/>
			</g>
			<g>
				
					<linearGradient id="SVGID_17_" gradientUnits="userSpaceOnUse" x1="482.0244" y1="1039.4785" x2="501.5381" y2="1039.4785" gradientTransform="matrix(-0.7276 -0.686 0.686 -0.7276 -117.5962 1153.4805)">
					<stop  offset="0" style="stop-color:#707070"/>
					<stop  offset="1" style="stop-color:#BCBEC0"/>
				</linearGradient>
				<path fill="url(#SVGID_17_)" d="M240.388,48.58l8.259,7.786c1.633,1.541,1.708,4.139,0.165,5.775l-8.17,8.666
					c-1.543,1.637-4.141,1.713-5.772,0.174l-8.259-7.785c-1.634-1.541-1.71-4.139-0.168-5.773l8.171-8.667
					C236.156,47.118,238.754,47.041,240.388,48.58z"/>
			</g>
		</g>
		
			<linearGradient id="SVGID_18_" gradientUnits="userSpaceOnUse" x1="483.3008" y1="1039.4785" x2="500.2617" y2="1039.4785" gradientTransform="matrix(-0.7276 -0.686 0.686 -0.7276 -117.5962 1153.4805)">
			<stop  offset="0" style="stop-color:#BCBEC0"/>
			<stop  offset="1" style="stop-color:#707070"/>
		</linearGradient>
		<path fill="url(#SVGID_18_)" d="M240.025,50.049l7.175,6.763c1.422,1.342,1.486,3.6,0.147,5.02l-7.101,7.533
			c-1.339,1.42-3.597,1.486-5.018,0.146l-7.175-6.764c-1.42-1.34-1.486-3.6-0.148-5.018l7.102-7.533
			C236.347,48.778,238.605,48.711,240.025,50.049z"/>
		<path fill="#595A5C" d="M241.838,59.479l2.208,2.082c0.438,0.412,0.46,1.107,0.046,1.545l-2.188,2.32
			c-0.413,0.439-1.106,0.459-1.546,0.045l-2.207-2.082c-0.438-0.412-0.462-1.107-0.049-1.545l2.188-2.32
			C240.704,59.084,241.4,59.066,241.838,59.479z"/>
		<path fill="#595A5C" d="M235.776,53.766l2.211,2.082c0.438,0.412,0.459,1.107,0.045,1.547l-2.187,2.32
			c-0.415,0.438-1.107,0.455-1.546,0.043l-2.209-2.082c-0.438-0.414-0.459-1.105-0.046-1.545l2.187-2.32
			C234.646,53.371,235.34,53.352,235.776,53.766z"/>
	</g>
</g>
</svg>
