<?xml version="1.0" encoding="utf-8"?>
<!-- Generator: Adobe Illustrator 15.1.0, SVG Export Plug-In . SVG Version: 6.00 Build 0)  -->
<!DOCTYPE svg PUBLIC "-//W3C//DTD SVG 1.1//EN" "http://www.w3.org/Graphics/SVG/1.1/DTD/svg11.dtd">
<svg version="1.1" id="Layer_1" xmlns="http://www.w3.org/2000/svg" xmlns:xlink="http://www.w3.org/1999/xlink" x="0px" y="0px"
	 width="300px" height="100px" viewBox="0 0 300 100" enable-background="new 0 0 300 100" xml:space="preserve">
<g>
	<g>
		<g>
			<g>
				<path fill="#010202" d="M0.24,48.095c0,0,68.421,46.763,143.958,45.073l130.601-2.925c6.019-0.136,11.682-2.287,15.582-5.928
					l0.614-0.571c3.263-3.042,5.056-6.905,5.056-10.897V22.779c0-4.276-2.055-8.392-5.745-11.51l0,0
					c-3.872-3.274-9.232-5.186-14.895-5.312L144.198,3.018C68.662,1.327,0.24,48.095,0.24,48.095z"/>
			</g>
		</g>
		<g>
			<g>
				<g opacity="0.5">
					<path d="M4.189,52.045c0,0,68.421,46.763,143.958,45.072l130.601-2.925c6.019-0.136,11.682-2.287,15.582-5.928l0.614-0.571
						c3.263-3.042,5.056-6.905,5.056-10.897V26.728c0-4.276-2.055-8.392-5.745-11.51l0,0c-3.872-3.274-9.232-5.186-14.895-5.312
						L148.147,6.967C72.611,5.276,4.189,52.045,4.189,52.045z"/>
				</g>
				<g>
					
						<linearGradient id="SVGID_1_" gradientUnits="userSpaceOnUse" x1="-154.4629" y1="236.3262" x2="-64.2231" y2="236.3262" gradientTransform="matrix(0 -1 1 0 -88.1807 -61.25)">
						<stop  offset="0" style="stop-color:#707070"/>
						<stop  offset="1" style="stop-color:#FFFFFF"/>
					</linearGradient>
					<path fill="url(#SVGID_1_)" d="M0.24,48.095c0,0,68.421,46.763,143.958,45.073l130.601-2.925
						c6.019-0.136,11.682-2.287,15.582-5.928l0.614-0.571c3.263-3.042,5.056-6.905,5.056-10.897V22.779
						c0-4.276-2.055-8.392-5.745-11.51l0,0c-3.872-3.274-9.232-5.186-14.895-5.312L144.198,3.018
						C68.662,1.327,0.24,48.095,0.24,48.095z"/>
				</g>
			</g>
			<path fill="#A7A9AC" d="M140.183,93.347c-38.213,0-74.249-12.273-97.75-22.569C16.974,59.621,0.329,48.32,0.162,48.208L0,48.095
				l0.162-0.111C0.329,47.87,16.971,36.566,42.433,25.41c23.498-10.298,59.534-22.571,97.75-22.571c1.339,0,2.692,0.015,4.019,0.043
				l131.213,2.94c5.653,0.127,11.111,2.075,14.98,5.343c3.733,3.158,5.791,7.281,5.791,11.614v50.068
				c0,4.025-1.812,7.932-5.099,10.996l-0.615,0.571c-3.914,3.653-9.624,5.827-15.67,5.963l-130.601,2.926
				C142.872,93.332,141.521,93.347,140.183,93.347z M0.479,48.095c1.796,1.202,17.983,11.886,42.07,22.437
				c23.473,10.285,59.471,22.545,97.634,22.547c1.336,0,2.687-0.017,4.014-0.046l130.6-2.926c5.98-0.135,11.627-2.282,15.494-5.891
				l0.614-0.571c3.232-3.014,5.012-6.849,5.012-10.799V22.779c0-4.25-2.022-8.302-5.699-11.407
				c-3.819-3.231-9.215-5.154-14.809-5.279L144.196,3.153c-1.327-0.031-2.675-0.045-4.014-0.045
				c-38.169,0-74.166,12.263-97.643,22.548C18.458,36.21,2.275,46.892,0.479,48.095z"/>
		</g>
		
			<linearGradient id="SVGID_2_" gradientUnits="userSpaceOnUse" x1="-150.8525" y1="236.3271" x2="-67.8325" y2="236.3271" gradientTransform="matrix(0 -1 1 0 -88.1807 -61.25)">
			<stop  offset="0" style="stop-color:#FFFFFF"/>
			<stop  offset="1" style="stop-color:#707070"/>
		</linearGradient>
		<path fill="url(#SVGID_2_)" d="M12.076,48.095c0,0,62.947,43.021,132.437,41.466l120.154-2.692
			c5.538-0.122,10.747-2.104,14.335-5.451l0.567-0.527c3.001-2.799,4.647-6.351,4.647-10.027v-46.06
			c0-3.933-1.889-7.723-5.286-10.59l0,0c-3.561-3.008-8.491-4.771-13.698-4.883l-120.72-2.707
			C75.023,5.069,12.076,48.095,12.076,48.095z"/>
		<path fill="#A7A9AC" d="M47.518,48.095c0,5.883,38.267,37.144,104.182,35.798l113.971-2.321
			c5.253-0.109,10.198-1.817,13.601-4.708l0.535-0.455c2.847-2.418,4.41-5.482,4.41-8.656V27.987c0-3.396-1.792-6.664-5.011-9.144
			l0,0c-3.381-2.598-8.059-4.12-12.994-4.22L151.7,12.29C85.785,10.949,47.518,42.208,47.518,48.095z"/>
		<g>
			<g>
				<g>
					<g>
						<g>
							<g opacity="0.5">
								<rect x="105.462" y="72.609" width="28.515" height="2.322"/>
							</g>
							<g>
								
									<linearGradient id="SVGID_3_" gradientUnits="userSpaceOnUse" x1="-134.1816" y1="205.9004" x2="-131.8594" y2="205.9004" gradientTransform="matrix(0 -1 1 0 -88.1807 -61.25)">
									<stop  offset="0" style="stop-color:#707070"/>
									<stop  offset="1" style="stop-color:#F1F2F2"/>
								</linearGradient>
								<rect x="103.462" y="70.609" fill="url(#SVGID_3_)" width="28.515" height="2.322"/>
							</g>
						</g>
						<path fill="#939599" d="M132.023,72.977h-28.609v-2.412h28.609V72.977z M103.509,72.886h28.42v-2.23h-28.42V72.886z"/>
					</g>
					<g>
						<g>
							<g opacity="0.5">
								<rect x="105.462" y="65.925" width="28.515" height="2.328"/>
							</g>
							<g>
								
									<linearGradient id="SVGID_4_" gradientUnits="userSpaceOnUse" x1="-127.5029" y1="205.9004" x2="-125.1748" y2="205.9004" gradientTransform="matrix(0 -1 1 0 -88.1807 -61.25)">
									<stop  offset="0" style="stop-color:#707070"/>
									<stop  offset="1" style="stop-color:#F1F2F2"/>
								</linearGradient>
								<rect x="103.462" y="63.925" fill="url(#SVGID_4_)" width="28.515" height="2.328"/>
							</g>
						</g>
						<path fill="#939599" d="M132.023,66.297h-28.609v-2.418h28.609V66.297z M103.509,66.206h28.42V63.97h-28.42V66.206z"/>
					</g>
					<g>
						<g>
							<g opacity="0.5">
								<path d="M157.367,63.165v14.526c0,2.878-2.353,5.229-5.229,5.229h-15.256c-2.873,0-5.229-2.352-5.229-5.229V63.165
									c0-2.877,2.355-5.229,5.229-5.229h15.256C155.015,57.937,157.367,60.288,157.367,63.165z"/>
							</g>
							<g>
								
									<linearGradient id="SVGID_5_" gradientUnits="userSpaceOnUse" x1="-142.1709" y1="230.6914" x2="-117.1865" y2="230.6914" gradientTransform="matrix(0 -1 1 0 -88.1807 -61.25)">
									<stop  offset="0" style="stop-color:#707070"/>
									<stop  offset="1" style="stop-color:#BCBEC0"/>
								</linearGradient>
								<path fill="url(#SVGID_5_)" d="M155.367,61.165v14.526c0,2.878-2.353,5.229-5.229,5.229h-15.256
									c-2.873,0-5.229-2.352-5.229-5.229V61.165c0-2.877,2.355-5.229,5.229-5.229h15.256
									C153.015,55.937,155.367,58.288,155.367,61.165z"/>
							</g>
						</g>
						<path fill="#939599" d="M150.139,80.966h-15.256c-2.909,0-5.275-2.366-5.275-5.274V61.165c0-2.909,2.366-5.275,5.275-5.275
							h15.256c2.909,0,5.276,2.366,5.276,5.275v14.526C155.415,78.6,153.048,80.966,150.139,80.966z M134.883,55.98
							c-2.856,0-5.182,2.325-5.182,5.185v14.526c0,2.859,2.325,5.184,5.182,5.184h15.256c2.856,0,5.182-2.324,5.182-5.184V61.165
							c0-2.859-2.325-5.185-5.182-5.185H134.883z"/>
					</g>
					<g>
						
							<linearGradient id="SVGID_6_" gradientUnits="userSpaceOnUse" x1="-140.5361" y1="230.6914" x2="-118.8213" y2="230.6914" gradientTransform="matrix(0 -1 1 0 -88.1807 -61.25)">
							<stop  offset="0" style="stop-color:#BCBEC0"/>
							<stop  offset="1" style="stop-color:#707070"/>
						</linearGradient>
						<path fill="url(#SVGID_6_)" d="M153.682,62.115v12.626c0,2.498-2.043,4.545-4.544,4.545h-13.257
							c-2.498,0-4.542-2.047-4.542-4.545V62.115c0-2.498,2.044-4.544,4.542-4.544h13.257
							C151.639,57.571,153.682,59.617,153.682,62.115z"/>
						<path fill="#939599" d="M149.138,79.33h-13.257c-2.528,0-4.588-2.058-4.588-4.589V62.115c0-2.531,2.06-4.59,4.588-4.59h13.257
							c2.531,0,4.592,2.059,4.592,4.59v12.626C153.729,77.272,151.669,79.33,149.138,79.33z M135.881,57.617
							c-2.479,0-4.495,2.018-4.495,4.498v12.626c0,2.479,2.017,4.498,4.495,4.498h13.257c2.482,0,4.498-2.019,4.498-4.498V62.115
							c0-2.48-2.016-4.498-4.498-4.498H135.881z"/>
					</g>
				</g>
			</g>
			<g>
				<g>
					<g>
						<path fill="#010202" d="M146.487,72.085v3.889c0,0.77-0.628,1.397-1.395,1.397h-4.084c-0.77,0-1.401-0.628-1.401-1.397v-3.889
							c0-0.77,0.632-1.401,1.401-1.401h4.084C145.859,70.684,146.487,71.315,146.487,72.085z"/>
					</g>
					<path fill="#595A5C" d="M146.487,72.085v3.889c0,0.77-0.628,1.397-1.395,1.397h-4.084c-0.77,0-1.401-0.628-1.401-1.397v-3.889
						c0-0.77,0.632-1.401,1.401-1.401h4.084C145.859,70.684,146.487,71.315,146.487,72.085z"/>
				</g>
				<g>
					<g>
						<path fill="#010202" d="M146.487,61.425v3.884c0,0.771-0.628,1.401-1.395,1.401h-4.084c-0.77,0-1.401-0.631-1.401-1.401
							v-3.884c0-0.773,0.632-1.402,1.401-1.402h4.084C145.859,60.022,146.487,60.651,146.487,61.425z"/>
					</g>
					<path fill="#595A5C" d="M146.487,61.425v3.884c0,0.771-0.628,1.401-1.395,1.401h-4.084c-0.77,0-1.401-0.631-1.401-1.401v-3.884
						c0-0.773,0.632-1.402,1.401-1.402h4.084C145.859,60.022,146.487,60.651,146.487,61.425z"/>
				</g>
			</g>
		</g>
		<g>
			<g>
				<g>
					<g>
						<g>
							<g opacity="0.5">
								<rect x="104.489" y="31.244" width="28.517" height="2.321"/>
							</g>
							<g>
								
									<linearGradient id="SVGID_7_" gradientUnits="userSpaceOnUse" x1="-92.8149" y1="204.9277" x2="-90.4937" y2="204.9277" gradientTransform="matrix(0 -1 1 0 -88.1807 -61.25)">
									<stop  offset="0" style="stop-color:#707070"/>
									<stop  offset="1" style="stop-color:#F1F2F2"/>
								</linearGradient>
								<rect x="102.489" y="29.244" fill="url(#SVGID_7_)" width="28.517" height="2.321"/>
							</g>
						</g>
						<path fill="#939599" d="M131.053,31.61h-28.611v-2.412h28.611V31.61z M102.535,31.52h28.424v-2.231h-28.424V31.52z"/>
					</g>
					<g>
						<g>
							<g opacity="0.5">
								<rect x="104.489" y="24.558" width="28.517" height="2.325"/>
							</g>
							<g>
								
									<linearGradient id="SVGID_8_" gradientUnits="userSpaceOnUse" x1="-86.1333" y1="204.9277" x2="-83.8081" y2="204.9277" gradientTransform="matrix(0 -1 1 0 -88.1807 -61.25)">
									<stop  offset="0" style="stop-color:#707070"/>
									<stop  offset="1" style="stop-color:#F1F2F2"/>
								</linearGradient>
								<rect x="102.489" y="22.558" fill="url(#SVGID_8_)" width="28.517" height="2.325"/>
							</g>
						</g>
						<path fill="#939599" d="M131.053,24.929h-28.611v-2.417h28.611V24.929z M102.535,24.837h28.424v-2.233h-28.424V24.837z"/>
					</g>
					<g>
						<g>
							<g opacity="0.5">
								<path d="M156.396,21.797v14.531c0,2.874-2.354,5.226-5.233,5.226h-15.251c-2.879,0-5.231-2.352-5.231-5.226V21.797
									c0-2.875,2.353-5.229,5.231-5.229h15.251C154.042,16.569,156.396,18.922,156.396,21.797z"/>
							</g>
							<g>
								
									<linearGradient id="SVGID_9_" gradientUnits="userSpaceOnUse" x1="-100.8042" y1="229.7188" x2="-75.8188" y2="229.7188" gradientTransform="matrix(0 -1 1 0 -88.1807 -61.25)">
									<stop  offset="0" style="stop-color:#707070"/>
									<stop  offset="1" style="stop-color:#BCBEC0"/>
								</linearGradient>
								<path fill="url(#SVGID_9_)" d="M154.396,19.797v14.531c0,2.874-2.354,5.226-5.233,5.226h-15.251
									c-2.879,0-5.231-2.352-5.231-5.226V19.797c0-2.875,2.353-5.229,5.231-5.229h15.251
									C152.042,14.569,154.396,16.922,154.396,19.797z"/>
							</g>
						</g>
						<path fill="#939599" d="M149.163,39.599h-15.251c-2.909,0-5.277-2.364-5.277-5.271V19.797c0-2.907,2.368-5.273,5.277-5.273
							h15.251c2.912,0,5.28,2.366,5.28,5.273v14.531C154.443,37.235,152.075,39.599,149.163,39.599z M133.912,14.615
							c-2.859,0-5.184,2.325-5.184,5.183v14.531c0,2.854,2.324,5.18,5.184,5.18h15.251c2.858,0,5.187-2.325,5.187-5.18V19.797
							c0-2.857-2.328-5.183-5.187-5.183H133.912z"/>
					</g>
					<g>
						
							<linearGradient id="SVGID_10_" gradientUnits="userSpaceOnUse" x1="-99.1704" y1="229.7188" x2="-77.4556" y2="229.7188" gradientTransform="matrix(0 -1 1 0 -88.1807 -61.25)">
							<stop  offset="0" style="stop-color:#BCBEC0"/>
							<stop  offset="1" style="stop-color:#707070"/>
						</linearGradient>
						<path fill="url(#SVGID_10_)" d="M152.709,20.75v12.624c0,2.502-2.047,4.547-4.545,4.547H134.91
							c-2.498,0-4.544-2.045-4.544-4.547V20.75c0-2.498,2.046-4.544,4.544-4.544h13.254
							C150.662,16.206,152.709,18.251,152.709,20.75z"/>
						<path fill="#939599" d="M148.164,37.964H134.91c-2.531,0-4.591-2.059-4.591-4.591V20.75c0-2.531,2.06-4.591,4.591-4.591
							h13.254c2.532,0,4.593,2.06,4.593,4.591v12.624C152.757,35.906,150.696,37.964,148.164,37.964z M134.91,16.25
							c-2.481,0-4.497,2.019-4.497,4.5v12.624c0,2.481,2.016,4.5,4.497,4.5h13.254c2.482,0,4.498-2.019,4.498-4.5V20.75
							c0-2.481-2.016-4.5-4.498-4.5H134.91z"/>
					</g>
				</g>
			</g>
			<g>
				<g>
					<g>
						<path fill="#010202" d="M145.517,30.717v3.887c0,0.772-0.629,1.401-1.4,1.401h-4.082c-0.771,0-1.397-0.629-1.397-1.401v-3.887
							c0-0.77,0.626-1.399,1.397-1.399h4.082C144.888,29.318,145.517,29.948,145.517,30.717z"/>
					</g>
					<path fill="#595A5C" d="M145.517,30.717v3.887c0,0.772-0.629,1.401-1.4,1.401h-4.082c-0.771,0-1.397-0.629-1.397-1.401v-3.887
						c0-0.77,0.626-1.399,1.397-1.399h4.082C144.888,29.318,145.517,29.948,145.517,30.717z"/>
				</g>
				<g>
					<g>
						<path fill="#010202" d="M145.517,20.054v3.889c0,0.769-0.629,1.4-1.4,1.4h-4.082c-0.771,0-1.397-0.632-1.397-1.4v-3.889
							c0-0.77,0.626-1.397,1.397-1.397h4.082C144.888,18.657,145.517,19.285,145.517,20.054z"/>
					</g>
					<path fill="#595A5C" d="M145.517,20.054v3.889c0,0.769-0.629,1.4-1.4,1.4h-4.082c-0.771,0-1.397-0.632-1.397-1.4v-3.889
						c0-0.77,0.626-1.397,1.397-1.397h4.082C144.888,18.657,145.517,19.285,145.517,20.054z"/>
				</g>
			</g>
		</g>
		<g>
			<g>
				<g>
					<g>
						<g>
							<g opacity="0.5">
								<rect x="262.657" y="45.024" width="28.519" height="2.324"/>
							</g>
							<g>
								
									<linearGradient id="SVGID_11_" gradientUnits="userSpaceOnUse" x1="-522.7153" y1="2892.4473" x2="-520.3911" y2="2892.4473" gradientTransform="matrix(0 1 -1 0 3167.3633 565.7393)">
									<stop  offset="0" style="stop-color:#707070"/>
									<stop  offset="1" style="stop-color:#F1F2F2"/>
								</linearGradient>
								<rect x="260.657" y="43.024" fill="url(#SVGID_11_)" width="28.519" height="2.324"/>
							</g>
						</g>
						<path fill="#939599" d="M289.222,45.394h-28.612v-2.416h28.612V45.394z M260.704,45.303h28.424v-2.234h-28.424V45.303z"/>
					</g>
					<g>
						<g>
							<g opacity="0.5">
								<rect x="262.657" y="51.705" width="28.519" height="2.328"/>
							</g>
							<g>
								
									<linearGradient id="SVGID_12_" gradientUnits="userSpaceOnUse" x1="-516.0337" y1="2892.4473" x2="-513.7061" y2="2892.4473" gradientTransform="matrix(0 1 -1 0 3167.3633 565.7393)">
									<stop  offset="0" style="stop-color:#707070"/>
									<stop  offset="1" style="stop-color:#F1F2F2"/>
								</linearGradient>
								<rect x="260.657" y="49.706" fill="url(#SVGID_12_)" width="28.519" height="2.328"/>
							</g>
						</g>
						<path fill="#939599" d="M289.222,52.08h-28.612v-2.421h28.612V52.08z M260.704,51.987h28.424v-2.235h-28.424V51.987z"/>
					</g>
					<g>
						<g>
							<g opacity="0.5">
								<path d="M239.267,56.791V42.266c0-2.877,2.354-5.232,5.233-5.232h15.253c2.877,0,5.227,2.355,5.227,5.232v14.525
									c0,2.877-2.35,5.231-5.227,5.231H244.5C241.621,62.022,239.267,59.668,239.267,56.791z"/>
							</g>
							<g>
								
									<linearGradient id="SVGID_13_" gradientUnits="userSpaceOnUse" x1="-530.7056" y1="2917.2402" x2="-505.7168" y2="2917.2402" gradientTransform="matrix(0 1 -1 0 3167.3633 565.7393)">
									<stop  offset="0" style="stop-color:#707070"/>
									<stop  offset="1" style="stop-color:#BCBEC0"/>
								</linearGradient>
								<path fill="url(#SVGID_13_)" d="M237.267,54.791V40.266c0-2.877,2.354-5.232,5.233-5.232h15.253
									c2.877,0,5.227,2.355,5.227,5.232v14.525c0,2.877-2.35,5.231-5.227,5.231H242.5
									C239.621,60.022,237.267,57.668,237.267,54.791z"/>
							</g>
						</g>
						<path fill="#939599" d="M257.753,60.068H242.5c-2.911,0-5.28-2.368-5.28-5.277V40.266c0-2.909,2.369-5.277,5.28-5.277h15.253
							c2.907,0,5.274,2.368,5.274,5.277v14.525C263.027,57.7,260.66,60.068,257.753,60.068z M242.5,35.08
							c-2.858,0-5.186,2.327-5.186,5.187v14.525c0,2.859,2.327,5.187,5.186,5.187h15.253c2.856,0,5.181-2.327,5.181-5.187V40.266
							c0-2.859-2.324-5.187-5.181-5.187H242.5z"/>
					</g>
					<g>
						
							<linearGradient id="SVGID_14_" gradientUnits="userSpaceOnUse" x1="-529.0669" y1="2917.2383" x2="-507.3535" y2="2917.2383" gradientTransform="matrix(0 1 -1 0 3167.3633 565.7393)">
							<stop  offset="0" style="stop-color:#BCBEC0"/>
							<stop  offset="1" style="stop-color:#707070"/>
						</linearGradient>
						<path fill="url(#SVGID_14_)" d="M238.954,53.841V41.217c0-2.499,2.047-4.545,4.545-4.545h13.254
							c2.498,0,4.544,2.046,4.544,4.545v12.624c0,2.496-2.046,4.545-4.544,4.545h-13.254
							C241.001,58.386,238.954,56.337,238.954,53.841z"/>
						<path fill="#939599" d="M256.753,58.43h-13.254c-2.532,0-4.592-2.059-4.592-4.589V41.217c0-2.532,2.06-4.59,4.592-4.59h13.254
							c2.531,0,4.592,2.058,4.592,4.59v12.624C261.345,56.371,259.284,58.43,256.753,58.43z M243.499,36.717
							c-2.482,0-4.498,2.02-4.498,4.5v12.624c0,2.479,2.016,4.498,4.498,4.498h13.254c2.482,0,4.497-2.019,4.497-4.498V41.217
							c0-2.48-2.015-4.5-4.497-4.5H243.499z"/>
					</g>
				</g>
			</g>
			<g>
				<g>
					<g>
						<path fill="#010202" d="M246.146,43.873v-3.889c0-0.769,0.632-1.4,1.401-1.4h4.081c0.77,0,1.397,0.632,1.397,1.4v3.889
							c0,0.77-0.628,1.399-1.397,1.399h-4.081C246.778,45.272,246.146,44.642,246.146,43.873z"/>
					</g>
					<path fill="#595A5C" d="M246.146,43.873v-3.889c0-0.769,0.632-1.4,1.401-1.4h4.081c0.77,0,1.397,0.632,1.397,1.4v3.889
						c0,0.77-0.628,1.399-1.397,1.399h-4.081C246.778,45.272,246.146,44.642,246.146,43.873z"/>
				</g>
				<g>
					<g>
						<path fill="#010202" d="M246.146,54.534v-3.885c0-0.77,0.632-1.4,1.401-1.4h4.081c0.77,0,1.397,0.631,1.397,1.4v3.885
							c0,0.77-0.628,1.402-1.397,1.402h-4.081C246.778,55.937,246.146,55.304,246.146,54.534z"/>
					</g>
					<path fill="#595A5C" d="M246.146,54.534v-3.885c0-0.77,0.632-1.4,1.401-1.4h4.081c0.77,0,1.397,0.631,1.397,1.4v3.885
						c0,0.77-0.628,1.402-1.397,1.402h-4.081C246.778,55.937,246.146,55.304,246.146,54.534z"/>
				</g>
			</g>
		</g>
		<g>
			<g>
				<path fill="#A7A9AC" d="M45.383,54.305L45.383,54.305c0,1.882-1.542,3.423-3.422,3.423H34.01c-1.88,0-3.419-1.541-3.419-3.423
					l0,0c0-1.88,1.539-3.416,3.419-3.416h7.951C43.842,50.889,45.383,52.425,45.383,54.305z"/>
				<g>
					<g opacity="0.5">
						<path d="M38.857,56.215c0.436,0,0.889,0.236,1.376,0.729c0.475,0.472,1.103,0.734,1.776,0.734
							c1.385,0,2.509-1.127,2.509-2.514c0-1.382-1.124-2.509-2.509-2.509c-0.673,0-1.301,0.263-1.776,0.736
							c-0.488,0.49-0.941,0.728-1.376,0.728c-0.438,0-0.887-0.237-1.379-0.728c-0.474-0.474-1.103-0.736-1.775-0.736
							c-1.385,0-2.51,1.127-2.51,2.509c0,1.387,1.125,2.514,2.51,2.514c0.672,0,1.301-0.263,1.775-0.734
							C37.97,56.451,38.419,56.215,38.857,56.215z"/>
					</g>
					<g>
						<g>
							<g>
								<path fill="#E6E7E9" d="M37.857,55.215c0.436,0,0.889,0.236,1.376,0.729c0.475,0.472,1.103,0.734,1.776,0.734
									c1.385,0,2.509-1.127,2.509-2.514c0-1.382-1.124-2.509-2.509-2.509c-0.673,0-1.301,0.263-1.776,0.736
									c-0.488,0.49-0.941,0.728-1.376,0.728c-0.438,0-0.887-0.237-1.379-0.728c-0.474-0.474-1.103-0.736-1.775-0.736
									c-1.385,0-2.51,1.127-2.51,2.509c0,1.387,1.125,2.514,2.51,2.514c0.672,0,1.301-0.263,1.775-0.734
									C36.97,55.451,37.419,55.215,37.857,55.215z"/>
							</g>
						</g>
					</g>
				</g>
			</g>
			<g>
				<path fill="#A7A9AC" d="M45.251,41.878L45.251,41.878c0,1.882-1.539,3.417-3.42,3.417h-7.953c-1.881,0-3.42-1.535-3.42-3.417
					l0,0c0-1.883,1.54-3.422,3.42-3.422h7.953C43.712,38.457,45.251,39.996,45.251,41.878z"/>
				<g>
					<g opacity="0.5">
						<path d="M41.88,45.331c-0.689,0-1.339-0.27-1.836-0.763c-0.471-0.472-0.901-0.7-1.318-0.7c-0.414,0-0.845,0.229-1.316,0.7
							c-0.494,0.493-1.145,0.763-1.837,0.763c-1.429,0-2.591-1.162-2.591-2.593s1.163-2.596,2.591-2.596
							c0.698,0,1.349,0.271,1.837,0.761c0.471,0.472,0.902,0.701,1.316,0.701c0.417,0,0.847-0.229,1.318-0.701
							c0.491-0.49,1.141-0.761,1.836-0.761c1.429,0,2.592,1.165,2.592,2.596S43.309,45.331,41.88,45.331z"/>
					</g>
					<g>
						<g>
							<g>
								<path fill="#E6E7E9" d="M40.88,44.331c-0.689,0-1.339-0.27-1.836-0.763c-0.471-0.472-0.901-0.7-1.318-0.7
									c-0.414,0-0.845,0.229-1.316,0.7c-0.494,0.493-1.145,0.763-1.837,0.763c-1.429,0-2.591-1.162-2.591-2.593
									s1.163-2.596,2.591-2.596c0.698,0,1.349,0.271,1.837,0.761c0.471,0.472,0.902,0.701,1.316,0.701
									c0.417,0,0.847-0.229,1.318-0.701c0.491-0.49,1.141-0.761,1.836-0.761c1.429,0,2.592,1.165,2.592,2.596
									S42.309,44.331,40.88,44.331z"/>
							</g>
						</g>
					</g>
				</g>
			</g>
		</g>
		<g>
			<g>
				<path fill="#010202" d="M156.821,46.375c0,15.417,12.63,28.484,30.134,33.085l41.348-10.057V23.342L186.955,13.29
					C169.451,17.889,156.821,30.958,156.821,46.375z"/>
			</g>
			<g>
				<g opacity="0.5">
					<path d="M158.821,48.375c0,15.417,12.63,28.484,30.134,33.085l41.348-10.057V25.342L188.955,15.29
						C171.451,19.889,158.821,32.958,158.821,48.375z"/>
				</g>
				<g>
					<path fill="#808386" d="M156.821,46.375c0,15.417,12.63,28.484,30.134,33.085l41.348-10.057V23.342L186.955,13.29
						C169.451,17.889,156.821,30.958,156.821,46.375z"/>
				</g>
			</g>
		</g>
		<g>
			<g>
				<g>
					<path fill="#231F20" d="M213.82,34.417v25.068c0,2.226-3.816,4.032-8.527,4.032h-25.338c-4.71,0-8.527-1.807-8.527-4.032
						V34.417c0-2.226,3.817-4.032,8.527-4.032h25.338C210.004,30.384,213.82,32.191,213.82,34.417z"/>
				</g>
			</g>
			<g>
				<g opacity="0.5">
					<path d="M215.82,36.417v25.068c0,2.226-3.816,4.032-8.527,4.032h-25.338c-4.71,0-8.527-1.807-8.527-4.032V36.417
						c0-2.226,3.817-4.032,8.527-4.032h25.338C212.004,32.384,215.82,34.191,215.82,36.417z"/>
				</g>
				<g>
					<path fill="#5F5F5E" d="M213.82,34.417v25.068c0,2.226-3.816,4.032-8.527,4.032h-25.338c-4.71,0-8.527-1.807-8.527-4.032
						V34.417c0-2.226,3.817-4.032,8.527-4.032h25.338C210.004,30.384,213.82,32.191,213.82,34.417z"/>
				</g>
			</g>
		</g>
	</g>
	<g>
		<g opacity="0.5">
			<rect x="51.382" y="52.336" width="28.519" height="2.322"/>
		</g>
		<g>
			
				<linearGradient id="SVGID_15_" gradientUnits="userSpaceOnUse" x1="-113.9082" y1="151.8223" x2="-111.5864" y2="151.8223" gradientTransform="matrix(0 -1 1 0 -88.1807 -61.25)">
				<stop  offset="0" style="stop-color:#707070"/>
				<stop  offset="1" style="stop-color:#F1F2F2"/>
			</linearGradient>
			<rect x="49.382" y="50.336" fill="url(#SVGID_15_)" width="28.519" height="2.322"/>
		</g>
	</g>
	<g>
		<g opacity="0.5">
			<rect x="51.382" y="45.651" width="28.519" height="2.325"/>
		</g>
		<g>
			
				<linearGradient id="SVGID_16_" gradientUnits="userSpaceOnUse" x1="-107.2261" y1="151.8223" x2="-104.9009" y2="151.8223" gradientTransform="matrix(0 -1 1 0 -88.1807 -61.25)">
				<stop  offset="0" style="stop-color:#707070"/>
				<stop  offset="1" style="stop-color:#F1F2F2"/>
			</linearGradient>
			<rect x="49.382" y="43.651" fill="url(#SVGID_16_)" width="28.519" height="2.325"/>
		</g>
	</g>
	<g>
		<g opacity="0.5">
			<path d="M103.29,42.889v14.533c0,2.873-2.354,5.226-5.234,5.226h-15.25c-2.879,0-5.231-2.353-5.231-5.226V42.889
				c0-2.875,2.353-5.228,5.231-5.228h15.25C100.936,37.662,103.29,40.014,103.29,42.889z"/>
		</g>
		<g>
			
				<linearGradient id="SVGID_17_" gradientUnits="userSpaceOnUse" x1="-121.8975" y1="176.6133" x2="-96.9116" y2="176.6133" gradientTransform="matrix(0 -1 1 0 -88.1807 -61.25)">
				<stop  offset="0" style="stop-color:#707070"/>
				<stop  offset="1" style="stop-color:#BCBEC0"/>
			</linearGradient>
			<path fill="url(#SVGID_17_)" d="M101.29,40.889v14.533c0,2.873-2.354,5.226-5.234,5.226h-15.25c-2.879,0-5.231-2.353-5.231-5.226
				V40.889c0-2.875,2.353-5.228,5.231-5.228h15.25C98.936,35.662,101.29,38.014,101.29,40.889z"/>
		</g>
	</g>
	
		<linearGradient id="SVGID_18_" gradientUnits="userSpaceOnUse" x1="-120.2617" y1="176.6123" x2="-98.5474" y2="176.6123" gradientTransform="matrix(0 -1 1 0 -88.1807 -61.25)">
		<stop  offset="0" style="stop-color:#BCBEC0"/>
		<stop  offset="1" style="stop-color:#707070"/>
	</linearGradient>
	<path fill="url(#SVGID_18_)" d="M99.604,41.842v12.625c0,2.501-2.047,4.545-4.546,4.545H81.804c-2.499,0-4.544-2.044-4.544-4.545
		V41.842c0-2.499,2.046-4.545,4.544-4.545h13.253C97.557,37.297,99.604,39.343,99.604,41.842z"/>
	<path fill="#595A5C" d="M92.41,51.812v3.886c0,0.772-0.629,1.401-1.4,1.401h-4.083c-0.771,0-1.397-0.629-1.397-1.401v-3.886
		c0-0.77,0.626-1.402,1.397-1.402h4.083C91.781,50.41,92.41,51.042,92.41,51.812z"/>
	<path fill="#595A5C" d="M92.41,41.147v3.889c0,0.77-0.629,1.4-1.4,1.4h-4.083c-0.771,0-1.397-0.631-1.397-1.4v-3.889
		c0-0.769,0.626-1.399,1.397-1.399h4.083C91.781,39.748,92.41,40.378,92.41,41.147z"/>
</g>
</svg>
