<?xml version="1.0" encoding="utf-8"?>
<!-- Generator: Adobe Illustrator 15.1.0, SVG Export Plug-In . SVG Version: 6.00 Build 0)  -->
<!DOCTYPE svg PUBLIC "-//W3C//DTD SVG 1.1//EN" "http://www.w3.org/Graphics/SVG/1.1/DTD/svg11.dtd">
<svg version="1.1" id="Layer_1" xmlns="http://www.w3.org/2000/svg" xmlns:xlink="http://www.w3.org/1999/xlink" x="0px" y="0px"
	 width="200px" height="100px" viewBox="0 0 200 100" enable-background="new 0 0 200 100" xml:space="preserve">
<g>
	<g>
		<g>
			<path fill="#010202" d="M0.141,48.413c0,0,45.475,39.221,95.679,37.801l86.797-2.451c4.004-0.111,7.767-1.917,10.356-4.971
				l0.409-0.48c2.17-2.552,3.357-5.787,3.357-9.14V27.19c0-3.59-1.364-7.041-3.816-9.658l0,0c-2.573-2.739-6.135-4.346-9.896-4.451
				l-87.208-2.463C45.615,9.199,0.141,48.413,0.141,48.413z"/>
		</g>
	</g>
	<g>
		<g>
			<g opacity="0.5">
				<path d="M3.402,51.675c0,0,45.475,39.22,95.678,37.801l86.797-2.452c4.004-0.11,7.768-1.917,10.357-4.971l0.408-0.479
					c2.171-2.553,3.357-5.787,3.357-9.141v-41.98c0-3.59-1.364-7.041-3.816-9.659l0,0c-2.573-2.739-6.135-4.346-9.896-4.45
					L99.08,13.879C48.877,12.46,3.402,51.675,3.402,51.675z"/>
			</g>
			<g>
				
					<linearGradient id="SVGID_1_" gradientUnits="userSpaceOnUse" x1="342.1777" y1="67.4258" x2="417.8496" y2="67.4258" gradientTransform="matrix(0 -1 1 0 31.0146 428.4297)">
					<stop  offset="0" style="stop-color:#707070"/>
					<stop  offset="1" style="stop-color:#FFFFFF"/>
				</linearGradient>
				<path fill="url(#SVGID_1_)" d="M0.141,48.413c0,0,45.475,39.221,95.679,37.801l86.797-2.451
					c4.004-0.111,7.767-1.917,10.356-4.971l0.409-0.48c2.17-2.552,3.357-5.787,3.357-9.14V27.19c0-3.59-1.364-7.041-3.816-9.658l0,0
					c-2.573-2.739-6.135-4.346-9.896-4.451l-87.208-2.463C45.615,9.199,0.141,48.413,0.141,48.413z"/>
			</g>
		</g>
		<path fill="#A7A9AC" d="M93.157,86.345c-0.002,0-0.008,0-0.011,0c-11.216,0-23.089-1.994-35.285-5.918
			c-9.758-3.143-19.746-7.521-29.686-13.016C11.252,58.056,0.191,48.577,0.08,48.482L0,48.413l0.08-0.069
			c0.111-0.094,11.172-9.573,28.093-18.928c9.94-5.494,19.928-9.871,29.687-13.011c12.198-3.926,24.071-5.918,35.287-5.918
			c0.893,0,1.792,0.014,2.676,0.039l87.208,2.463c3.752,0.105,7.383,1.737,9.959,4.479c2.477,2.646,3.841,6.097,3.841,9.722v41.981
			c0,3.372-1.198,6.638-3.38,9.2l-0.408,0.48c-2.602,3.068-6.4,4.891-10.424,5.002l-86.796,2.451
			C94.928,86.33,94.055,86.345,93.157,86.345z M0.282,48.413c1.04,0.884,11.845,9.916,27.987,18.84
			c15.601,8.623,39.519,18.906,64.877,18.906c0.003,0,0.006,0,0.009,0c0.895,0,1.767-0.011,2.662-0.036l86.795-2.452
			c3.972-0.11,7.721-1.91,10.291-4.939l0.409-0.48c2.151-2.527,3.336-5.751,3.336-9.079V27.19c0-3.578-1.349-6.985-3.792-9.596
			c-2.543-2.708-6.127-4.318-9.832-4.423L95.817,10.71c-0.881-0.026-1.781-0.037-2.671-0.037c-25.358,0-49.278,10.279-64.88,18.903
			C12.125,38.498,1.322,47.529,0.282,48.413z"/>
	</g>
	
		<linearGradient id="SVGID_2_" gradientUnits="userSpaceOnUse" x1="345.2012" y1="67.4268" x2="414.8213" y2="67.4268" gradientTransform="matrix(0 -1 1 0 31.0146 428.4297)">
		<stop  offset="0" style="stop-color:#FFFFFF"/>
		<stop  offset="1" style="stop-color:#707070"/>
	</linearGradient>
	<path fill="url(#SVGID_2_)" d="M8.005,48.413c0,0,41.838,36.084,88.022,34.781l79.856-2.26c3.678-0.104,7.144-1.768,9.526-4.572
		l0.378-0.441c1.99-2.348,3.09-5.33,3.09-8.41V28.886c0-3.297-1.256-6.473-3.512-8.88l0,0c-2.37-2.523-5.646-4.004-9.104-4.098
		l-80.235-2.265C49.843,12.335,8.005,48.413,8.005,48.413z"/>
	<path fill="#A7A9AC" d="M31.563,48.413c0,4.938,25.434,31.152,69.24,30.025l75.748-1.943c3.49-0.094,6.776-1.529,9.037-3.954
		l0.356-0.376c1.892-2.032,2.933-4.6,2.933-7.262v-33.35c0-2.85-1.189-5.589-3.336-7.666l0,0c-2.241-2.181-5.354-3.457-8.634-3.533
		l-76.104-1.961C56.997,17.267,31.563,43.481,31.563,48.413z"/>
	<g>
		<g>
			<path fill="#010202" d="M92.619,47.032c0,12.929,8.395,23.885,20.027,27.745l27.479-8.433V27.716l-27.479-8.428
				C101.014,23.144,92.619,34.104,92.619,47.032z"/>
		</g>
		<g>
			<g opacity="0.5">
				<path d="M93.619,48.032c0,12.929,8.395,23.885,20.027,27.745l27.479-8.433V28.716l-27.479-8.428
					C102.014,24.144,93.619,35.104,93.619,48.032z"/>
			</g>
			<g>
				<path fill="#808386" d="M92.619,47.032c0,12.929,8.395,23.885,20.027,27.745l27.479-8.433V27.716l-27.479-8.428
					C101.014,23.144,92.619,34.104,92.619,47.032z"/>
			</g>
		</g>
	</g>
	<g>
		<path fill="#808386" d="M181.243,24.523L181.243,24.523c0,2.06-1.689,3.749-3.75,3.749h-8.712c-2.062,0-3.746-1.689-3.746-3.749
			l0,0c0-2.061,1.685-3.744,3.746-3.744h8.712C179.554,20.779,181.243,22.463,181.243,24.523z"/>
		<g>
			<g>
				<path fill="#010202" d="M174.473,22.392c-1.044,1.043-1.907,1.043-2.955,0c-0.505-0.508-1.203-0.816-1.974-0.816
					c-1.543,0-2.794,1.247-2.794,2.794c0,1.546,1.251,2.794,2.794,2.794c0.771,0,1.469-0.309,1.974-0.817
					c1.048-1.044,1.911-1.044,2.955,0c0.505,0.509,1.204,0.817,1.977,0.817c1.542,0,2.798-1.248,2.798-2.794
					c0-1.547-1.256-2.794-2.798-2.794C175.677,21.575,174.978,21.884,174.473,22.392z"/>
			</g>
			<g>
				<g>
					<g opacity="0.5">
						<path d="M175.473,23.392c-1.044,1.043-1.907,1.043-2.955,0c-0.505-0.508-1.203-0.816-1.974-0.816
							c-1.543,0-2.794,1.247-2.794,2.794c0,1.546,1.251,2.794,2.794,2.794c0.771,0,1.469-0.309,1.974-0.817
							c1.048-1.044,1.911-1.044,2.955,0c0.505,0.509,1.204,0.817,1.977,0.817c1.542,0,2.798-1.248,2.798-2.794
							c0-1.547-1.256-2.794-2.798-2.794C176.677,22.575,175.978,22.884,175.473,23.392z"/>
					</g>
					<g>
						<path fill="#E6E7E9" d="M174.473,22.392c-1.044,1.043-1.907,1.043-2.955,0c-0.505-0.508-1.203-0.816-1.974-0.816
							c-1.543,0-2.794,1.247-2.794,2.794c0,1.546,1.251,2.794,2.794,2.794c0.771,0,1.469-0.309,1.974-0.817
							c1.048-1.044,1.911-1.044,2.955,0c0.505,0.509,1.204,0.817,1.977,0.817c1.542,0,2.798-1.248,2.798-2.794
							c0-1.547-1.256-2.794-2.798-2.794C175.677,21.575,174.978,21.884,174.473,22.392z"/>
					</g>
				</g>
				<path fill="#E6E7E9" d="M176.449,27.204c-0.762,0-1.475-0.295-2.007-0.828c-0.516-0.519-0.991-0.771-1.447-0.771
					c-0.452,0-0.927,0.252-1.446,0.771c-0.533,0.533-1.246,0.828-2.005,0.828c-1.562,0-2.836-1.273-2.836-2.835
					c0-1.563,1.273-2.836,2.836-2.836c0.759,0,1.472,0.296,2.005,0.828c0.52,0.519,0.994,0.771,1.446,0.771
					c0.456,0,0.932-0.252,1.447-0.771c0.532-0.532,1.245-0.828,2.007-0.828c1.566,0,2.839,1.272,2.839,2.836
					C179.288,25.931,178.016,27.204,176.449,27.204z M172.995,25.521c0.486,0,0.964,0.254,1.508,0.795
					c0.517,0.519,1.207,0.807,1.946,0.807c1.52,0,2.757-1.234,2.757-2.753s-1.237-2.753-2.757-2.753
					c-0.739,0-1.43,0.286-1.946,0.806c-0.544,0.541-1.021,0.795-1.508,0.795c-0.482,0-0.964-0.254-1.508-0.795
					c-0.516-0.52-1.206-0.806-1.943-0.806c-1.519,0-2.753,1.234-2.753,2.753s1.234,2.753,2.753,2.753
					c0.737,0,1.428-0.288,1.943-0.807C172.031,25.774,172.513,25.521,172.995,25.521z"/>
			</g>
		</g>
	</g>
	<g>
		<path fill="#A7A9AC" d="M28.957,48.507L28.957,48.507c0,2.061-1.685,3.744-3.744,3.744h-8.715c-2.06,0-3.743-1.684-3.743-3.744
			l0,0c0-2.064,1.684-3.75,3.743-3.75h8.715C27.272,44.757,28.957,46.442,28.957,48.507z"/>
		<g>
			<g>
				<path fill="#010202" d="M22.189,46.37c-1.041,1.044-1.908,1.044-2.952,0c-0.505-0.503-1.203-0.817-1.979-0.817
					c-1.541,0-2.795,1.254-2.795,2.8c0,1.541,1.254,2.794,2.795,2.794c0.776,0,1.475-0.314,1.979-0.822
					c1.044-1.044,1.911-1.044,2.952,0c0.505,0.508,1.207,0.822,1.979,0.822c1.541,0,2.795-1.253,2.795-2.794
					c0-1.546-1.254-2.8-2.795-2.8C23.396,45.553,22.694,45.867,22.189,46.37z"/>
			</g>
			<g>
				<g>
					<g opacity="0.5">
						<path d="M23.189,47.37c-1.041,1.044-1.908,1.044-2.952,0c-0.505-0.503-1.203-0.817-1.979-0.817
							c-1.541,0-2.795,1.254-2.795,2.8c0,1.541,1.254,2.794,2.795,2.794c0.776,0,1.475-0.314,1.979-0.822
							c1.044-1.044,1.911-1.044,2.952,0c0.505,0.508,1.207,0.822,1.979,0.822c1.541,0,2.795-1.253,2.795-2.794
							c0-1.546-1.254-2.8-2.795-2.8C24.396,46.553,23.694,46.867,23.189,47.37z"/>
					</g>
					<g>
						<path fill="#E6E7E9" d="M22.189,46.37c-1.041,1.044-1.908,1.044-2.952,0c-0.505-0.503-1.203-0.817-1.979-0.817
							c-1.541,0-2.795,1.254-2.795,2.8c0,1.541,1.254,2.794,2.795,2.794c0.776,0,1.475-0.314,1.979-0.822
							c1.044-1.044,1.911-1.044,2.952,0c0.505,0.508,1.207,0.822,1.979,0.822c1.541,0,2.795-1.253,2.795-2.794
							c0-1.546-1.254-2.8-2.795-2.8C23.396,45.553,22.694,45.867,22.189,46.37z"/>
					</g>
				</g>
				<path fill="#E6E7E9" d="M24.169,51.188c-0.76,0-1.475-0.296-2.01-0.834c-0.517-0.52-0.989-0.771-1.444-0.771
					c-0.456,0-0.931,0.251-1.447,0.771c-0.535,0.538-1.25,0.834-2.01,0.834c-1.563,0-2.836-1.273-2.836-2.836
					c0-1.566,1.272-2.842,2.836-2.842c0.756,0,1.472,0.296,2.01,0.828c0.517,0.52,0.991,0.771,1.447,0.771
					c0.455,0,0.928-0.252,1.444-0.771c0.538-0.532,1.254-0.828,2.01-0.828c1.563,0,2.836,1.275,2.836,2.842
					C27.005,49.915,25.732,51.188,24.169,51.188z M20.715,49.499c0.478,0,0.969,0.262,1.505,0.795
					c0.519,0.524,1.212,0.811,1.949,0.811c1.519,0,2.753-1.233,2.753-2.752c0-1.521-1.234-2.758-2.753-2.758
					c-0.734,0-1.428,0.287-1.949,0.806c-0.536,0.532-1.027,0.796-1.505,0.796s-0.973-0.264-1.508-0.796
					c-0.521-0.519-1.215-0.806-1.949-0.806c-1.519,0-2.753,1.236-2.753,2.758c0,1.519,1.234,2.752,2.753,2.752
					c0.737,0,1.431-0.286,1.949-0.811C19.742,49.761,20.237,49.499,20.715,49.499z"/>
			</g>
		</g>
	</g>
	<g>
		<path fill="#808386" d="M181.243,71.701L181.243,71.701c0,2.061-1.689,3.75-3.75,3.75h-8.712c-2.062,0-3.746-1.689-3.746-3.75l0,0
			c0-2.06,1.685-3.744,3.746-3.744h8.712C179.554,67.957,181.243,69.642,181.243,71.701z"/>
		<g>
			<g>
				<path fill="#010202" d="M174.473,69.569c-1.044,1.045-1.907,1.045-2.955,0c-0.505-0.508-1.203-0.817-1.974-0.817
					c-1.543,0-2.794,1.249-2.794,2.795s1.251,2.794,2.794,2.794c0.771,0,1.469-0.31,1.974-0.817c1.048-1.044,1.911-1.044,2.955,0
					c0.505,0.508,1.204,0.817,1.977,0.817c1.542,0,2.798-1.248,2.798-2.794s-1.256-2.795-2.798-2.795
					C175.677,68.752,174.978,69.062,174.473,69.569z"/>
			</g>
			<g>
				<g>
					<g opacity="0.5">
						<path d="M175.473,70.569c-1.044,1.045-1.907,1.045-2.955,0c-0.505-0.508-1.203-0.817-1.974-0.817
							c-1.543,0-2.794,1.249-2.794,2.795s1.251,2.794,2.794,2.794c0.771,0,1.469-0.31,1.974-0.817c1.048-1.044,1.911-1.044,2.955,0
							c0.505,0.508,1.204,0.817,1.977,0.817c1.542,0,2.798-1.248,2.798-2.794s-1.256-2.795-2.798-2.795
							C176.677,69.752,175.978,70.062,175.473,70.569z"/>
					</g>
					<g>
						<path fill="#E6E7E9" d="M174.473,69.569c-1.044,1.045-1.907,1.045-2.955,0c-0.505-0.508-1.203-0.817-1.974-0.817
							c-1.543,0-2.794,1.249-2.794,2.795s1.251,2.794,2.794,2.794c0.771,0,1.469-0.31,1.974-0.817c1.048-1.044,1.911-1.044,2.955,0
							c0.505,0.508,1.204,0.817,1.977,0.817c1.542,0,2.798-1.248,2.798-2.794s-1.256-2.795-2.798-2.795
							C175.677,68.752,174.978,69.062,174.473,69.569z"/>
					</g>
				</g>
				<path fill="#E6E7E9" d="M176.449,74.383c-0.762,0-1.475-0.296-2.007-0.829c-0.516-0.52-0.991-0.77-1.447-0.77
					c-0.452,0-0.927,0.25-1.446,0.77c-0.533,0.533-1.246,0.829-2.005,0.829c-1.562,0-2.836-1.273-2.836-2.836
					c0-1.563,1.273-2.836,2.836-2.836c0.759,0,1.472,0.295,2.005,0.829c0.52,0.519,0.994,0.77,1.446,0.77
					c0.456,0,0.932-0.251,1.447-0.77c0.532-0.534,1.245-0.829,2.007-0.829c1.566,0,2.839,1.272,2.839,2.836
					C179.288,73.109,178.016,74.383,176.449,74.383z M172.995,72.698c0.486,0,0.964,0.254,1.508,0.795
					c0.517,0.52,1.207,0.807,1.946,0.807c1.52,0,2.757-1.234,2.757-2.753s-1.237-2.753-2.757-2.753c-0.739,0-1.43,0.287-1.946,0.807
					c-0.544,0.541-1.021,0.795-1.508,0.795c-0.482,0-0.964-0.254-1.508-0.795c-0.516-0.52-1.206-0.807-1.943-0.807
					c-1.519,0-2.753,1.234-2.753,2.753s1.234,2.753,2.753,2.753c0.737,0,1.428-0.287,1.943-0.807
					C172.031,72.952,172.513,72.698,172.995,72.698z"/>
			</g>
		</g>
	</g>
	<g>
		<g>
			<g>
				<path fill="#231F20" d="M181.597,34.083v27.463c0,2.44-1.975,4.418-4.412,4.418h-13.116c-2.438,0-4.418-1.978-4.418-4.418
					V34.083c0-2.436,1.979-4.418,4.418-4.418h13.116C179.622,29.665,181.597,31.647,181.597,34.083z"/>
			</g>
		</g>
		<g>
			<g opacity="0.5">
				<path d="M182.597,35.083v27.463c0,2.44-1.975,4.418-4.412,4.418h-13.116c-2.438,0-4.418-1.978-4.418-4.418V35.083
					c0-2.436,1.979-4.418,4.418-4.418h13.116C180.622,30.665,182.597,32.647,182.597,35.083z"/>
			</g>
			<g>
				<path fill="#808386" d="M181.597,34.083v27.463c0,2.44-1.975,4.418-4.412,4.418h-13.116c-2.438,0-4.418-1.978-4.418-4.418
					V34.083c0-2.436,1.979-4.418,4.418-4.418h13.116C179.622,29.665,181.597,31.647,181.597,34.083z"/>
			</g>
		</g>
		<g>
			<g>
				<rect x="177.902" y="43.349" fill="#010202" width="1.698" height="8.213"/>
			</g>
			<rect x="177.902" y="43.349" fill="#231F20" width="1.698" height="8.213"/>
		</g>
		<g>
			<path fill="#231F20" d="M161.149,57.012v2.59c0,0.718-0.582,1.298-1.298,1.298l0,0c-0.712,0-1.298-0.58-1.298-1.298v-2.59
				c0-0.712,0.586-1.298,1.298-1.298l0,0C160.567,55.714,161.149,56.3,161.149,57.012z"/>
			<path fill="#231F20" d="M161.149,36.977v2.595c0,0.713-0.582,1.299-1.298,1.299l0,0c-0.712,0-1.298-0.586-1.298-1.299v-2.595
				c0-0.713,0.586-1.298,1.298-1.298l0,0C160.567,35.679,161.149,36.264,161.149,36.977z"/>
		</g>
	</g>
	<g>
		<g>
			<g>
				<path fill="#010202" d="M89.745,39.837v15.91c0,3.153-2.579,5.732-5.729,5.732H67.305c-3.15,0-5.729-2.579-5.729-5.732v-15.91
					c0-3.153,2.579-5.732,5.729-5.732h16.711C87.166,34.104,89.745,36.684,89.745,39.837z"/>
				<g>
					<rect x="32.878" y="50.181" fill="#010202" width="31.243" height="2.545"/>
					<rect x="32.878" y="42.857" fill="#010202" width="31.243" height="2.546"/>
				</g>
			</g>
		</g>
		<g>
			<g>
				<g>
					<g opacity="0.5">
						<rect x="33.878" y="51.181" width="31.243" height="2.545"/>
					</g>
					<g>
						
							<linearGradient id="SVGID_3_" gradientUnits="userSpaceOnUse" x1="375.7041" y1="17.4849" x2="378.249" y2="17.4849" gradientTransform="matrix(0 -1 1 0 31.0146 428.4297)">
							<stop  offset="0" style="stop-color:#707070"/>
							<stop  offset="1" style="stop-color:#F1F2F2"/>
						</linearGradient>
						<rect x="32.878" y="50.181" fill="url(#SVGID_3_)" width="31.243" height="2.545"/>
					</g>
				</g>
				<path fill="#939599" d="M64.168,52.772H32.831v-2.639h31.337V52.772z M32.925,52.679h31.149v-2.451H32.925V52.679z"/>
			</g>
			<g>
				<g>
					<g opacity="0.5">
						<rect x="33.878" y="43.857" width="31.243" height="2.546"/>
					</g>
					<g>
						
							<linearGradient id="SVGID_4_" gradientUnits="userSpaceOnUse" x1="383.0264" y1="17.4849" x2="385.5723" y2="17.4849" gradientTransform="matrix(0 -1 1 0 31.0146 428.4297)">
							<stop  offset="0" style="stop-color:#707070"/>
							<stop  offset="1" style="stop-color:#F1F2F2"/>
						</linearGradient>
						<rect x="32.878" y="42.857" fill="url(#SVGID_4_)" width="31.243" height="2.546"/>
					</g>
				</g>
				<path fill="#939599" d="M64.168,45.45H32.831v-2.64h31.337V45.45z M32.925,45.356h31.149v-2.451H32.925V45.356z"/>
			</g>
			<g>
				<g>
					<g opacity="0.5">
						<path d="M90.745,40.837v15.91c0,3.153-2.579,5.732-5.729,5.732H68.305c-3.15,0-5.729-2.579-5.729-5.732v-15.91
							c0-3.153,2.579-5.732,5.729-5.732h16.711C88.166,35.104,90.745,37.684,90.745,40.837z"/>
					</g>
					<g>
						
							<linearGradient id="SVGID_5_" gradientUnits="userSpaceOnUse" x1="366.9502" y1="44.6455" x2="394.3252" y2="44.6455" gradientTransform="matrix(0 -1 1 0 31.0146 428.4297)">
							<stop  offset="0" style="stop-color:#707070"/>
							<stop  offset="1" style="stop-color:#BCBEC0"/>
						</linearGradient>
						<path fill="url(#SVGID_5_)" d="M89.745,39.837v15.91c0,3.153-2.579,5.732-5.729,5.732H67.305c-3.15,0-5.729-2.579-5.729-5.732
							v-15.91c0-3.153,2.579-5.732,5.729-5.732h16.711C87.166,34.104,89.745,36.684,89.745,39.837z"/>
					</g>
				</g>
				<path fill="#939599" d="M84.016,61.526H67.305c-3.184,0-5.776-2.593-5.776-5.779v-15.91c0-3.186,2.593-5.779,5.776-5.779h16.711
					c3.184,0,5.776,2.594,5.776,5.779v15.91C89.792,58.934,87.199,61.526,84.016,61.526z M67.305,34.151
					c-3.134,0-5.683,2.549-5.683,5.686v15.91c0,3.137,2.549,5.686,5.683,5.686h16.711c3.134,0,5.683-2.549,5.683-5.686v-15.91
					c0-3.137-2.549-5.686-5.683-5.686H67.305z"/>
			</g>
			<g>
				
					<linearGradient id="SVGID_6_" gradientUnits="userSpaceOnUse" x1="368.7451" y1="44.6455" x2="392.5303" y2="44.6455" gradientTransform="matrix(0 -1 1 0 31.0146 428.4297)">
					<stop  offset="0" style="stop-color:#BCBEC0"/>
					<stop  offset="1" style="stop-color:#707070"/>
				</linearGradient>
				<path fill="url(#SVGID_6_)" d="M87.897,40.875v13.828c0,2.739-2.239,4.981-4.979,4.981H68.401c-2.739,0-4.979-2.242-4.979-4.981
					V40.875c0-2.733,2.239-4.976,4.979-4.976h14.518C85.658,35.899,87.897,38.142,87.897,40.875z"/>
				<path fill="#939599" d="M82.919,59.731H68.401c-2.771,0-5.025-2.256-5.025-5.028V40.875c0-2.77,2.255-5.022,5.025-5.022h14.518
					c2.77,0,5.025,2.253,5.025,5.022v13.828C87.944,57.476,85.688,59.731,82.919,59.731z M68.401,35.946
					c-2.72,0-4.932,2.212-4.932,4.929v13.828c0,2.723,2.212,4.935,4.932,4.935h14.518c2.72,0,4.932-2.212,4.932-4.935V40.875
					c0-2.717-2.212-4.929-4.932-4.929H68.401z"/>
			</g>
		</g>
	</g>
	<g>
		<g>
			<g>
				<path fill="#010202" d="M80.021,51.799v4.258c0,0.839-0.69,1.535-1.533,1.535h-4.473c-0.842,0-1.536-0.696-1.536-1.535v-4.258
					c0-0.845,0.694-1.535,1.536-1.535h4.473C79.33,50.264,80.021,50.954,80.021,51.799z"/>
			</g>
			<path fill="#595A5C" d="M80.021,51.799v4.258c0,0.839-0.69,1.535-1.533,1.535h-4.473c-0.842,0-1.536-0.696-1.536-1.535v-4.258
				c0-0.845,0.694-1.535,1.536-1.535h4.473C79.33,50.264,80.021,50.954,80.021,51.799z"/>
		</g>
		<g>
			<g>
				<path fill="#010202" d="M80.021,40.113v4.258c0,0.845-0.69,1.535-1.533,1.535h-4.473c-0.842,0-1.536-0.69-1.536-1.535v-4.258
					c0-0.84,0.694-1.536,1.536-1.536h4.473C79.33,38.577,80.021,39.273,80.021,40.113z"/>
			</g>
			<path fill="#595A5C" d="M80.021,40.113v4.258c0,0.845-0.69,1.535-1.533,1.535h-4.473c-0.842,0-1.536-0.69-1.536-1.535v-4.258
				c0-0.84,0.694-1.536,1.536-1.536h4.473C79.33,38.577,80.021,39.273,80.021,40.113z"/>
		</g>
	</g>
	<g>
		<g>
			<path fill="#010202" d="M157.538,64.522v7.946c0,1.574-1.292,2.86-2.863,2.86h-8.345c-1.573,0-2.86-1.286-2.86-2.86v-7.946
				c0-1.574,1.287-2.861,2.86-2.861h8.345C156.246,61.661,157.538,62.948,157.538,64.522z"/>
		</g>
		<g>
			<g opacity="0.5">
				<path d="M158.538,65.522v7.946c0,1.574-1.292,2.86-2.863,2.86h-8.345c-1.573,0-2.86-1.286-2.86-2.86v-7.946
					c0-1.574,1.287-2.861,2.86-2.861h8.345C157.246,62.661,158.538,63.948,158.538,65.522z"/>
			</g>
			<g>
				<path fill="#808386" d="M157.538,64.522v7.946c0,1.574-1.292,2.86-2.863,2.86h-8.345c-1.573,0-2.86-1.286-2.86-2.86v-7.946
					c0-1.574,1.287-2.861,2.86-2.861h8.345C156.246,61.661,157.538,62.948,157.538,64.522z"/>
			</g>
		</g>
	</g>
	<path fill="#010202" d="M80.729,53.345v1.166c0,0.386-0.317,0.711-0.709,0.711l0,0c-0.396,0-0.713-0.325-0.713-0.711v-1.166
		c0-0.392,0.317-0.713,0.713-0.713l0,0C80.412,52.632,80.729,52.953,80.729,53.345z"/>
	<path fill="#010202" d="M158.706,67.571v1.916c0,0.646-0.527,1.17-1.168,1.17l0,0c-0.646,0-1.174-0.524-1.174-1.17v-1.916
		c0-0.646,0.528-1.172,1.174-1.172l0,0C158.179,66.399,158.706,66.925,158.706,67.571z"/>
	<path fill="#010202" d="M80.729,41.665v1.159c0,0.393-0.317,0.713-0.709,0.713l0,0c-0.396,0-0.713-0.32-0.713-0.713v-1.159
		c0-0.393,0.317-0.719,0.713-0.719l0,0C80.412,40.946,80.729,41.272,80.729,41.665z"/>
</g>
</svg>
