<?xml version="1.0" encoding="utf-8"?>
<!-- Generator: Adobe Illustrator 15.1.0, SVG Export Plug-In . SVG Version: 6.00 Build 0)  -->
<!DOCTYPE svg PUBLIC "-//W3C//DTD SVG 1.1//EN" "http://www.w3.org/Graphics/SVG/1.1/DTD/svg11.dtd">
<svg version="1.1" id="Layer_1" xmlns="http://www.w3.org/2000/svg" xmlns:xlink="http://www.w3.org/1999/xlink" x="0px" y="0px"
	 width="300px" height="100px" viewBox="0 0 300 100" enable-background="new 0 0 300 100" xml:space="preserve">
<g>
	<g>
		<g opacity="0.5">
			<path fill="#1D1E1C" d="M161.812,82.979C85.223,84.186,3.516,71.428,3.246,54.113C2.973,36.795,84.232,21.473,160.823,20.266
				c33.213-0.523,74.903,1.59,98.852,5.613c31.275,5.26,40.166,13.752,40.323,23.559c0.148,9.666-7.887,18.564-38.196,24.797
				C237.799,79.166,195.663,82.445,161.812,82.979z"/>
		</g>
		<g>
			
				<linearGradient id="SVGID_1_" gradientUnits="userSpaceOnUse" x1="-1152.9448" y1="5179.5996" x2="-1090.2271" y2="5179.5996" gradientTransform="matrix(0.0157 0.9999 0.9999 -0.0157 -5013.0967 1251.323)">
				<stop  offset="0" style="stop-color:#B5B5B5"/>
				<stop  offset="1" style="stop-color:#575655"/>
			</linearGradient>
			<path fill="url(#SVGID_1_)" d="M158.566,79.732C81.979,80.939,0.271,68.184,0.001,50.868
				c-0.274-17.318,80.985-32.64,157.578-33.847c33.212-0.524,74.903,1.588,98.851,5.611c31.275,5.26,40.168,13.752,40.323,23.559
				c0.147,9.666-7.886,18.564-38.196,24.797C234.555,75.921,192.418,79.201,158.566,79.732z"/>
		</g>
	</g>
	<g>
		<g>
			<path fill="#221E20" d="M228.383,47.041l0.036,2.307c0.008,0.502,0.427,0.905,0.927,0.897l2.532-0.042
				c0.5-0.005,0.907-0.426,0.897-0.926l-0.035-2.307c-0.008-0.502-0.43-0.906-0.93-0.896l-2.529,0.037
				C228.777,46.12,228.374,46.538,228.383,47.041z"/>
		</g>
		<g>
			
				<linearGradient id="SVGID_2_" gradientUnits="userSpaceOnUse" x1="-1122.7339" y1="5261.7969" x2="-1118.5991" y2="5261.7969" gradientTransform="matrix(0.0157 0.9999 0.9999 -0.0157 -5013.0967 1251.323)">
				<stop  offset="0" style="stop-color:#808084"/>
				<stop  offset="1" style="stop-color:#FFFFFF"/>
			</linearGradient>
			<path fill="url(#SVGID_2_)" d="M228.383,47.041l0.036,2.307c0.008,0.502,0.427,0.905,0.927,0.897l2.532-0.042
				c0.5-0.005,0.907-0.426,0.897-0.926l-0.035-2.307c-0.008-0.502-0.43-0.906-0.93-0.896l-2.529,0.037
				C228.777,46.12,228.374,46.538,228.383,47.041z"/>
			
				<linearGradient id="SVGID_3_" gradientUnits="userSpaceOnUse" x1="-1122.314" y1="5261.7959" x2="-1119.0181" y2="5261.7959" gradientTransform="matrix(0.0157 0.9999 0.9999 -0.0157 -5013.0967 1251.323)">
				<stop  offset="0" style="stop-color:#BABBBE"/>
				<stop  offset="1" style="stop-color:#FFFFFF"/>
			</linearGradient>
			<path fill="url(#SVGID_3_)" d="M228.827,47.27l0.028,1.834c0.006,0.402,0.34,0.725,0.742,0.719l2.016-0.033
				c0.402-0.005,0.724-0.338,0.718-0.739l-0.03-1.835c-0.006-0.4-0.338-0.726-0.738-0.717l-2.021,0.029
				C229.145,46.535,228.818,46.867,228.827,47.27z"/>
		</g>
	</g>
	<g>
		<g>
			<g>
				<circle fill="#010101" cx="243.036" cy="47.605" r="4.345"/>
			</g>
		</g>
		
			<linearGradient id="SVGID_4_" gradientUnits="userSpaceOnUse" x1="-1125.3691" y1="5274.2598" x2="-1116.6787" y2="5274.2598" gradientTransform="matrix(0.0157 0.9999 0.9999 -0.0157 -5013.0967 1251.323)">
			<stop  offset="0" style="stop-color:#000000"/>
			<stop  offset="1" style="stop-color:#C9C8C8"/>
		</linearGradient>
		<circle fill="url(#SVGID_4_)" cx="243.036" cy="47.605" r="4.345"/>
		<path fill="#FFFFFF" d="M243.088,50.945c-1.841,0.027-3.359-1.443-3.391-3.286c-0.027-1.845,1.441-3.36,3.285-3.392
			c1.845-0.031,3.358,1.442,3.392,3.283C246.4,49.398,244.932,50.915,243.088,50.945z"/>
		<g>
			<path fill="none" d="M240.439,49.682c0.164,0.2,0.352,0.383,0.555,0.539l2.017-2.636L240.439,49.682z"/>
			<path fill="none" d="M239.734,48.115c0.045,0.261,0.117,0.509,0.216,0.744l3.062-1.274L239.734,48.115z"/>
			<path fill="none" d="M243.033,47.596l3.076,1.168c0.089-0.238,0.154-0.488,0.188-0.753l-3.264-0.423V47.596L243.033,47.596z"/>
			<path fill="none" d="M243.038,47.621l2.065,2.531c0.201-0.16,0.379-0.348,0.539-0.553l-2.607-1.994L243.038,47.621z"/>
			<path fill="none" d="M240.911,45.016c-0.197,0.166-0.378,0.354-0.537,0.56l2.637,2.011L240.911,45.016z"/>
			<path fill="none" d="M244.188,44.486c-0.236-0.092-0.486-0.154-0.754-0.188l-0.422,3.286L244.188,44.486z"/>
			<path fill="none" d="M246.279,47.059c-0.043-0.263-0.109-0.512-0.207-0.748l-3.062,1.274L246.279,47.059z"/>
			<path fill="none" d="M239.906,46.409c-0.088,0.235-0.148,0.489-0.188,0.75l3.291,0.426L239.906,46.409z"/>
			<path fill="none" d="M245.577,45.491c-0.165-0.2-0.349-0.382-0.556-0.538l-2.014,2.632L245.577,45.491z"/>
			<path fill="none" d="M242.479,44.314c-0.258,0.043-0.508,0.109-0.742,0.209l1.275,3.062L242.479,44.314z"/>
			<path fill="none" d="M243.047,47.68l0.488,3.178c0.262-0.041,0.515-0.112,0.748-0.211L243.047,47.68z"/>
			<path fill="none" d="M243.012,47.585l-1.182,3.101c0.238,0.09,0.488,0.152,0.75,0.188l0.447-3.242L243.012,47.585z"/>
			<polygon fill="none" points="243.033,47.588 243.012,47.585 243.033,47.596 			"/>
			<polygon fill="none" points="243.029,47.602 243.012,47.585 243.027,47.609 			"/>
			
				<linearGradient id="SVGID_5_" gradientUnits="userSpaceOnUse" x1="5773.6699" y1="734.4307" x2="5769.0249" y2="729.9057" gradientTransform="matrix(1 -0.0079 -0.0079 -1 -5524.9116 827.7296)">
				<stop  offset="0" style="stop-color:#FFFFFF"/>
				<stop  offset="1" style="stop-color:#D42717"/>
			</linearGradient>
			<polygon fill="url(#SVGID_5_)" points="243.027,47.609 243.038,47.621 243.035,47.605 243.029,47.602 			"/>
			
				<linearGradient id="SVGID_6_" gradientUnits="userSpaceOnUse" x1="5773.6797" y1="734.459" x2="5769.9893" y2="730.8638" gradientTransform="matrix(1 -0.0079 -0.0079 -1 -5524.9116 827.7296)">
				<stop  offset="0" style="stop-color:#FFFFFF"/>
				<stop  offset="1" style="stop-color:#D42717"/>
			</linearGradient>
			<rect x="243.033" y="47.588" fill="url(#SVGID_6_)" width="0" height="0.008"/>
			
				<linearGradient id="SVGID_7_" gradientUnits="userSpaceOnUse" x1="1181.1328" y1="-6198.6768" x2="1178.7185" y2="-6201.0288" gradientTransform="matrix(-0.0157 -0.9999 -0.9999 0.0157 -5936.4404 1325.9597)">
				<stop  offset="0" style="stop-color:#FFFFFF"/>
				<stop  offset="1" style="stop-color:#D42717"/>
			</linearGradient>
			<polygon fill="url(#SVGID_7_)" points="243.033,47.585 243.033,47.588 243.033,47.588 			"/>
			
				<linearGradient id="SVGID_8_" gradientUnits="userSpaceOnUse" x1="5773.7246" y1="734.5088" x2="5772.5889" y2="733.4025" gradientTransform="matrix(1 -0.0079 -0.0079 -1 -5524.9116 827.7296)">
				<stop  offset="0" style="stop-color:#FFFFFF"/>
				<stop  offset="1" style="stop-color:#D42717"/>
			</linearGradient>
			<polygon fill="url(#SVGID_8_)" points="243.033,47.585 243.033,47.588 243.033,47.588 			"/>
			
				<linearGradient id="SVGID_9_" gradientUnits="userSpaceOnUse" x1="5585.002" y1="-2337.6172" x2="5581.3608" y2="-2341.1641" gradientTransform="matrix(0.858 -0.5136 -0.5136 -0.858 -5749.5337 910.4672)">
				<stop  offset="0" style="stop-color:#FFFFFF"/>
				<stop  offset="1" style="stop-color:#D42717"/>
			</linearGradient>
			<polygon fill="url(#SVGID_9_)" points="243.012,47.585 243.027,47.629 243.027,47.609 			"/>
			
				<linearGradient id="SVGID_10_" gradientUnits="userSpaceOnUse" x1="5773.708" y1="734.4316" x2="5770.2017" y2="731.0157" gradientTransform="matrix(1 -0.0079 -0.0079 -1 -5524.9116 827.7296)">
				<stop  offset="0" style="stop-color:#FFFFFF"/>
				<stop  offset="1" style="stop-color:#D42717"/>
			</linearGradient>
			<polygon fill="url(#SVGID_10_)" points="243.027,47.609 243.027,47.629 243.047,47.68 243.038,47.621 			"/>
			
				<linearGradient id="SVGID_11_" gradientUnits="userSpaceOnUse" x1="5585.0215" y1="-2337.6348" x2="5581.3203" y2="-2341.2397" gradientTransform="matrix(0.858 -0.5136 -0.5136 -0.858 -5749.5337 910.4672)">
				<stop  offset="0" style="stop-color:#FFFFFF"/>
				<stop  offset="1" style="stop-color:#D42717"/>
			</linearGradient>
			<polygon fill="url(#SVGID_11_)" points="243.027,47.609 243.027,47.629 243.047,47.68 243.038,47.621 			"/>
			
				<linearGradient id="SVGID_12_" gradientUnits="userSpaceOnUse" x1="3900.251" y1="-4858.1475" x2="3897.2295" y2="-4861.0913" gradientTransform="matrix(0.4863 -0.8738 -0.8738 -0.4863 -5898.6978 1093.189)">
				<stop  offset="0" style="stop-color:#FFFFFF"/>
				<stop  offset="1" style="stop-color:#D42717"/>
			</linearGradient>
			<polygon fill="url(#SVGID_12_)" points="243.033,47.596 243.012,47.585 243.029,47.602 			"/>
			
				<linearGradient id="SVGID_13_" gradientUnits="userSpaceOnUse" x1="5773.6982" y1="734.4746" x2="5771.0679" y2="731.9123" gradientTransform="matrix(1 -0.0079 -0.0079 -1 -5524.9116 827.7296)">
				<stop  offset="0" style="stop-color:#FFFFFF"/>
				<stop  offset="1" style="stop-color:#D42717"/>
			</linearGradient>
			<rect x="243.027" y="47.593" fill="url(#SVGID_13_)" width="0.008" height="0.011"/>
			
				<linearGradient id="SVGID_14_" gradientUnits="userSpaceOnUse" x1="3900.2637" y1="-4858.144" x2="3897.7458" y2="-4860.5967" gradientTransform="matrix(0.4863 -0.8738 -0.8738 -0.4863 -5898.6978 1093.189)">
				<stop  offset="0" style="stop-color:#FFFFFF"/>
				<stop  offset="1" style="stop-color:#D42717"/>
			</linearGradient>
			<rect x="243.027" y="47.593" fill="url(#SVGID_14_)" width="0.008" height="0.011"/>
		</g>
	</g>
	<g>
		<g>
			<g>
				<path fill="#010101" d="M47.391,54.74c-2.396,0.037-4.373-1.877-4.412-4.276c-0.039-2.401,1.879-4.377,4.274-4.412
					c2.401-0.038,4.381,1.876,4.413,4.275C51.705,52.729,49.792,54.704,47.391,54.74z"/>
			</g>
		</g>
		
			<linearGradient id="SVGID_15_" gradientUnits="userSpaceOnUse" x1="-1125.6509" y1="5078.5312" x2="-1116.9624" y2="5078.5312" gradientTransform="matrix(0.0157 0.9999 0.9999 -0.0157 -5013.0967 1251.323)">
			<stop  offset="0" style="stop-color:#000000"/>
			<stop  offset="1" style="stop-color:#C9C8C8"/>
		</linearGradient>
		<path fill="url(#SVGID_15_)" d="M47.391,54.74c-2.396,0.037-4.373-1.877-4.412-4.276c-0.039-2.401,1.879-4.377,4.274-4.412
			c2.401-0.038,4.381,1.876,4.413,4.275C51.705,52.729,49.792,54.704,47.391,54.74z"/>
		<path fill="#FFFFFF" d="M47.374,53.732c-1.841,0.026-3.356-1.44-3.392-3.287c-0.025-1.844,1.447-3.359,3.287-3.391
			c1.847-0.027,3.362,1.442,3.391,3.286C50.688,52.188,49.221,53.703,47.374,53.732z"/>
		<g>
			<path fill="none" d="M44.727,52.471c0.164,0.2,0.353,0.381,0.555,0.541l2.018-2.636L44.727,52.471z"/>
			<path fill="none" d="M44.021,50.904c0.045,0.261,0.115,0.511,0.215,0.744l3.062-1.272L44.021,50.904z"/>
			<path fill="none" d="M47.318,50.385l3.078,1.168c0.088-0.238,0.153-0.492,0.188-0.75l-3.266-0.424V50.385z"/>
			<path fill="none" d="M47.325,50.412l2.065,2.529c0.203-0.162,0.385-0.351,0.539-0.557l-2.604-1.992V50.412z"/>
			<path fill="none" d="M45.204,47.809c-0.203,0.162-0.386,0.349-0.539,0.555l2.633,2.014L45.204,47.809z"/>
			<path fill="none" d="M48.475,47.273c-0.236-0.09-0.49-0.15-0.754-0.187l-0.423,3.288L48.475,47.273z"/>
			<path fill="none" d="M50.566,49.848c-0.045-0.263-0.109-0.513-0.209-0.746l-3.061,1.274L50.566,49.848z"/>
			<path fill="none" d="M44.198,49.197c-0.095,0.238-0.153,0.49-0.187,0.75l3.285,0.429L44.198,49.197z"/>
			<path fill="none" d="M49.863,48.279c-0.159-0.199-0.346-0.381-0.555-0.538l-2.012,2.635L49.863,48.279z"/>
			<path fill="none" d="M46.766,47.104c-0.26,0.041-0.507,0.112-0.742,0.209l1.274,3.062L46.766,47.104z"/>
			<path fill="none" d="M47.336,50.468l0.489,3.181c0.258-0.043,0.511-0.112,0.747-0.211L47.336,50.468z"/>
			<path fill="none" d="M47.298,50.376l-1.177,3.101c0.236,0.09,0.484,0.15,0.748,0.188l0.445-3.244L47.298,50.376z"/>
			<polygon fill="none" points="47.318,50.379 47.298,50.376 47.318,50.385 			"/>
			<polygon fill="none" points="47.318,50.391 47.298,50.376 47.314,50.4 			"/>
			
				<linearGradient id="SVGID_16_" gradientUnits="userSpaceOnUse" x1="5577.9648" y1="733.2031" x2="5574.2178" y2="729.553" gradientTransform="matrix(1 -0.0079 -0.0079 -1 -5524.9116 827.7296)">
				<stop  offset="0" style="stop-color:#FFFFFF"/>
				<stop  offset="1" style="stop-color:#D42717"/>
			</linearGradient>
			<polygon fill="url(#SVGID_16_)" points="47.314,50.4 47.325,50.412 47.325,50.396 47.318,50.391 			"/>
			
				<linearGradient id="SVGID_17_" gradientUnits="userSpaceOnUse" x1="5577.9805" y1="733.2402" x2="5575.833" y2="731.1486" gradientTransform="matrix(1 -0.0079 -0.0079 -1 -5524.9116 827.7296)">
				<stop  offset="0" style="stop-color:#FFFFFF"/>
				<stop  offset="1" style="stop-color:#D42717"/>
			</linearGradient>
			<rect x="47.318" y="50.379" fill="url(#SVGID_17_)" width="0" height="0.006"/>
			
				<linearGradient id="SVGID_18_" gradientUnits="userSpaceOnUse" x1="1181.4297" y1="-6002.9316" x2="1179.8202" y2="-6004.4995" gradientTransform="matrix(-0.0157 -0.9999 -0.9999 0.0157 -5936.4404 1325.9597)">
				<stop  offset="0" style="stop-color:#FFFFFF"/>
				<stop  offset="1" style="stop-color:#D42717"/>
			</linearGradient>
			<polygon fill="url(#SVGID_18_)" points="47.318,50.376 47.318,50.379 47.318,50.379 			"/>
			
				<linearGradient id="SVGID_19_" gradientUnits="userSpaceOnUse" x1="5577.9053" y1="733.1719" x2="5571.9155" y2="727.338" gradientTransform="matrix(1 -0.0079 -0.0079 -1 -5524.9116 827.7296)">
				<stop  offset="0" style="stop-color:#FFFFFF"/>
				<stop  offset="1" style="stop-color:#D42717"/>
			</linearGradient>
			<polygon fill="url(#SVGID_19_)" points="47.318,50.376 47.318,50.379 47.318,50.379 			"/>
			
				<linearGradient id="SVGID_20_" gradientUnits="userSpaceOnUse" x1="5415.6367" y1="-2239.4902" x2="5411.8901" y2="-2243.1399" gradientTransform="matrix(0.858 -0.5136 -0.5136 -0.858 -5749.5337 910.4672)">
				<stop  offset="0" style="stop-color:#FFFFFF"/>
				<stop  offset="1" style="stop-color:#D42717"/>
			</linearGradient>
			<polygon fill="url(#SVGID_20_)" points="47.298,50.376 47.314,50.418 47.314,50.4 			"/>
			
				<linearGradient id="SVGID_21_" gradientUnits="userSpaceOnUse" x1="5577.9883" y1="733.1895" x2="5574.6865" y2="729.9734" gradientTransform="matrix(1 -0.0079 -0.0079 -1 -5524.9116 827.7296)">
				<stop  offset="0" style="stop-color:#FFFFFF"/>
				<stop  offset="1" style="stop-color:#D42717"/>
			</linearGradient>
			<polygon fill="url(#SVGID_21_)" points="47.314,50.4 47.314,50.418 47.336,50.468 47.325,50.412 			"/>
			
				<linearGradient id="SVGID_22_" gradientUnits="userSpaceOnUse" x1="5415.6611" y1="-2239.5039" x2="5412.2456" y2="-2242.8313" gradientTransform="matrix(0.858 -0.5136 -0.5136 -0.858 -5749.5337 910.4672)">
				<stop  offset="0" style="stop-color:#FFFFFF"/>
				<stop  offset="1" style="stop-color:#D42717"/>
			</linearGradient>
			<polygon fill="url(#SVGID_22_)" points="47.314,50.4 47.314,50.418 47.336,50.468 47.325,50.412 			"/>
			
				<linearGradient id="SVGID_23_" gradientUnits="userSpaceOnUse" x1="3802.6348" y1="-4688.4951" x2="3799.311" y2="-4691.7329" gradientTransform="matrix(0.4863 -0.8738 -0.8738 -0.4863 -5898.6978 1093.189)">
				<stop  offset="0" style="stop-color:#FFFFFF"/>
				<stop  offset="1" style="stop-color:#D42717"/>
			</linearGradient>
			<polygon fill="url(#SVGID_23_)" points="47.318,50.385 47.298,50.376 47.318,50.391 			"/>
			
				<linearGradient id="SVGID_24_" gradientUnits="userSpaceOnUse" x1="5578.0039" y1="733.252" x2="5576.8467" y2="732.1249" gradientTransform="matrix(1 -0.0079 -0.0079 -1 -5524.9116 827.7296)">
				<stop  offset="0" style="stop-color:#FFFFFF"/>
				<stop  offset="1" style="stop-color:#D42717"/>
			</linearGradient>
			<polygon fill="url(#SVGID_24_)" points="47.318,50.391 47.325,50.396 47.318,50.385 47.318,50.385 			"/>
			
				<linearGradient id="SVGID_25_" gradientUnits="userSpaceOnUse" x1="3802.6406" y1="-4688.5015" x2="3799.4553" y2="-4691.604" gradientTransform="matrix(0.4863 -0.8738 -0.8738 -0.4863 -5898.6978 1093.189)">
				<stop  offset="0" style="stop-color:#FFFFFF"/>
				<stop  offset="1" style="stop-color:#D42717"/>
			</linearGradient>
			<polygon fill="url(#SVGID_25_)" points="47.318,50.391 47.325,50.396 47.318,50.385 47.318,50.385 			"/>
		</g>
	</g>
	<g>
		<g>
			<g opacity="0.5">
				<path fill="#1D1E1C" d="M156.562,61.266c-21.769,0.344-45.004-4.582-45.109-11.111c-0.104-6.527,22.971-12.182,44.736-12.527
					c9.438-0.148,21.293,0.708,28.104,2.262c8.896,2.026,11.438,5.241,11.495,8.939c0.057,3.645-2.214,6.984-10.816,9.286
					C178.154,59.941,166.184,61.114,156.562,61.266z"/>
			</g>
			<g>
				
					<linearGradient id="SVGID_26_" gradientUnits="userSpaceOnUse" x1="422.6221" y1="-205.7822" x2="422.6221" y2="-182.1104" gradientTransform="matrix(1 0 0 -1 -271 -146.5)">
					<stop  offset="0" style="stop-color:#5E5F5F"/>
					<stop  offset="1" style="stop-color:#8B8B8B"/>
				</linearGradient>
				<path fill="url(#SVGID_26_)" d="M154.562,59.266c-21.769,0.344-45.004-4.582-45.109-11.111
					c-0.104-6.527,22.971-12.182,44.736-12.527c9.438-0.148,21.293,0.708,28.104,2.262c8.896,2.026,11.438,5.241,11.495,8.939
					c0.057,3.645-2.214,6.984-10.816,9.286C176.154,57.941,164.184,59.114,154.562,59.266z"/>
			</g>
		</g>
		<g>
			<path fill="#434344" d="M142.18,49.525c-1.055,0.017-1.924-0.826-1.939-1.883c-0.016-1.055,0.826-1.922,1.883-1.938
				c1.055-0.019,1.926,0.823,1.941,1.879C144.078,48.643,143.234,49.51,142.18,49.525z"/>
		</g>
		<g>
			<path fill="#434344" d="M134.26,49.511c-1.055,0.013-1.924-0.827-1.939-1.883c-0.016-1.058,0.824-1.926,1.88-1.942
				c1.055-0.016,1.923,0.828,1.942,1.883C136.161,48.623,135.316,49.491,134.26,49.511z"/>
		</g>
		<g>
			<path fill="#434344" d="M124.701,50.036c-1.319,0.021-2.406-1.033-2.43-2.353c-0.021-1.317,1.033-2.406,2.353-2.43
				c1.319-0.02,2.407,1.033,2.431,2.354C127.072,48.93,126.021,50.014,124.701,50.036z"/>
		</g>
		<g>
			<g>
				<path fill="#221E20" d="M153.205,41.167l0.038,2.304c0.005,0.502,0.423,0.906,0.928,0.9l2.528-0.041
					c0.503-0.01,0.906-0.426,0.9-0.93l-0.037-2.303c-0.006-0.502-0.424-0.906-0.932-0.9l-2.525,0.042
					C153.602,40.247,153.199,40.664,153.205,41.167z"/>
			</g>
			<g>
				
					<linearGradient id="SVGID_27_" gradientUnits="userSpaceOnUse" x1="-1129.7876" y1="5186.7227" x2="-1125.6528" y2="5186.7227" gradientTransform="matrix(0.0157 0.9999 0.9999 -0.0157 -5013.0967 1251.323)">
					<stop  offset="0" style="stop-color:#808084"/>
					<stop  offset="1" style="stop-color:#FFFFFF"/>
				</linearGradient>
				<path fill="url(#SVGID_27_)" d="M153.205,41.167l0.038,2.304c0.005,0.502,0.423,0.906,0.928,0.9l2.528-0.041
					c0.503-0.01,0.906-0.426,0.9-0.93l-0.037-2.303c-0.006-0.502-0.424-0.906-0.932-0.9l-2.525,0.042
					C153.602,40.247,153.199,40.664,153.205,41.167z"/>
				
					<linearGradient id="SVGID_28_" gradientUnits="userSpaceOnUse" x1="-1129.3657" y1="5186.7227" x2="-1126.0728" y2="5186.7227" gradientTransform="matrix(0.0157 0.9999 0.9999 -0.0157 -5013.0967 1251.323)">
					<stop  offset="0" style="stop-color:#BABBBE"/>
					<stop  offset="1" style="stop-color:#FFFFFF"/>
				</linearGradient>
				<path fill="url(#SVGID_28_)" d="M153.648,41.393l0.031,1.838c0.008,0.398,0.338,0.724,0.736,0.715l2.02-0.029
					c0.398-0.006,0.726-0.341,0.719-0.739l-0.028-1.838c-0.006-0.401-0.339-0.723-0.739-0.715l-2.02,0.03
					C153.969,40.659,153.645,40.991,153.648,41.393z"/>
			</g>
		</g>
		<g>
			<g>
				<path fill="#221E20" d="M153.484,50.98l0.035,2.303c0.01,0.506,0.426,0.906,0.926,0.902l2.533-0.041
					c0.5-0.012,0.904-0.43,0.896-0.932l-0.035-2.304c-0.009-0.502-0.427-0.906-0.929-0.898l-2.531,0.039
					C153.881,50.061,153.475,50.479,153.484,50.98z"/>
			</g>
			<g>
				
					<linearGradient id="SVGID_29_" gradientUnits="userSpaceOnUse" x1="-1119.9722" y1="5186.8457" x2="-1115.8364" y2="5186.8457" gradientTransform="matrix(0.0157 0.9999 0.9999 -0.0157 -5013.0967 1251.323)">
					<stop  offset="0" style="stop-color:#808084"/>
					<stop  offset="1" style="stop-color:#FFFFFF"/>
				</linearGradient>
				<path fill="url(#SVGID_29_)" d="M153.484,50.98l0.035,2.303c0.01,0.506,0.426,0.906,0.926,0.902l2.533-0.041
					c0.5-0.012,0.904-0.43,0.896-0.932l-0.035-2.304c-0.009-0.502-0.427-0.906-0.929-0.898l-2.531,0.039
					C153.881,50.061,153.475,50.479,153.484,50.98z"/>
				
					<linearGradient id="SVGID_30_" gradientUnits="userSpaceOnUse" x1="-1119.5464" y1="5186.8457" x2="-1116.2544" y2="5186.8457" gradientTransform="matrix(0.0157 0.9999 0.9999 -0.0157 -5013.0967 1251.323)">
					<stop  offset="0" style="stop-color:#BABBBE"/>
					<stop  offset="1" style="stop-color:#FFFFFF"/>
				</linearGradient>
				<path fill="url(#SVGID_30_)" d="M153.93,51.207l0.027,1.838c0.006,0.398,0.341,0.723,0.742,0.717l2.017-0.033
					c0.401-0.004,0.726-0.34,0.716-0.735l-0.027-1.841c-0.006-0.396-0.34-0.721-0.735-0.713l-2.021,0.031
					C154.243,50.473,153.924,50.809,153.93,51.207z"/>
			</g>
		</g>
		<g>
			<g opacity="0.5">
				
					<rect x="163.908" y="42.46" transform="matrix(0.9999 -0.0157 0.0157 0.9999 -0.7314 2.6331)" fill="#1D1E1C" width="7.351" height="11.016"/>
			</g>
			<g>
				<g>
					
						<rect x="162.912" y="41.449" transform="matrix(0.9999 -0.0157 0.0157 0.9999 -0.7157 2.6174)" fill="#808084" width="7.351" height="11.017"/>
				</g>
			</g>
		</g>
		<g>
			<g>
				<g>
					<path fill="#221E20" d="M173.08,49.234l-0.061-3.992c-0.006-0.354,0.336-0.648,0.758-0.654l2.291-0.035
						c0.43-0.009,0.772,0.273,0.781,0.629l0.063,3.992c0.005,0.354-0.336,0.646-0.767,0.653l-2.291,0.032
						C173.438,49.868,173.086,49.586,173.08,49.234z"/>
				</g>
			</g>
			<g>
				<g opacity="0.5">
					<path fill="#1D1E1C" d="M174.08,50.234l-0.061-3.992c-0.006-0.354,0.336-0.648,0.758-0.654l2.291-0.035
						c0.43-0.009,0.772,0.273,0.781,0.629l0.063,3.992c0.005,0.354-0.336,0.646-0.767,0.653l-2.291,0.032
						C174.438,50.868,174.086,50.586,174.08,50.234z"/>
				</g>
				<g>
					<path fill="#808084" d="M173.08,49.234l-0.061-3.992c-0.006-0.354,0.336-0.648,0.758-0.654l2.291-0.035
						c0.43-0.009,0.772,0.273,0.781,0.629l0.063,3.992c0.005,0.354-0.336,0.646-0.767,0.653l-2.291,0.032
						C173.438,49.868,173.086,49.586,173.08,49.234z"/>
				</g>
			</g>
			<g>
				<g>
					
						<rect x="172.802" y="47.038" transform="matrix(-0.0164 -0.9999 0.9999 -0.0164 129.06 221.3336)" fill="#221E20" width="1.192" height="0.297"/>
				</g>
			</g>
			<g>
				<path fill="#221E20" d="M176.602,45.844l-0.006-0.377c-0.004-0.104,0.098-0.189,0.223-0.191l0,0
					c0.125-0.004,0.229,0.082,0.229,0.185l0.007,0.379c0,0.103-0.101,0.188-0.227,0.192l0,0
					C176.707,46.029,176.604,45.947,176.602,45.844z"/>
				<path fill="#221E20" d="M176.646,48.756l-0.006-0.376c-0.004-0.104,0.1-0.19,0.219-0.192l0,0
					c0.127-0.002,0.229,0.08,0.229,0.185l0.011,0.376c0.002,0.104-0.104,0.191-0.226,0.191l0,0
					C176.751,48.943,176.646,48.859,176.646,48.756z"/>
			</g>
		</g>
	</g>
	<g>
		<g>
			<g>
				
					<rect x="45.346" y="59.314" transform="matrix(-0.0139 -0.9999 0.9999 -0.0139 -12.8752 106.2277)" fill="#FFFFFF" width="1.192" height="0.297"/>
			</g>
		</g>
	</g>
	<path fill="#585756" d="M45.322,62.366l-0.065-3.992c-0.006-0.354,0.335-0.646,0.759-0.653l2.291-0.033
		c0.43-0.01,0.78,0.271,0.786,0.625l0.062,3.994c0.005,0.354-0.336,0.646-0.76,0.652l-2.291,0.036
		C45.674,63.004,45.328,62.721,45.322,62.366z"/>
	<path fill="#585756" d="M45.066,42.473l-0.065-3.99c-0.006-0.354,0.335-0.646,0.765-0.653l2.284-0.035
		c0.429-0.006,0.775,0.274,0.786,0.629l0.061,3.992c0.006,0.353-0.334,0.646-0.764,0.651l-2.291,0.037
		C45.418,43.109,45.066,42.829,45.066,42.473z"/>
</g>
</svg>
